<?xml version="1.0" encoding="UTF-8" standalone="no"?>
<svg
   xmlns:dc="http://purl.org/dc/elements/1.1/"
   xmlns:cc="http://creativecommons.org/ns#"
   xmlns:rdf="http://www.w3.org/1999/02/22-rdf-syntax-ns#"
   xmlns:svg="http://www.w3.org/2000/svg"
   xmlns="http://www.w3.org/2000/svg"
   xmlns:sodipodi="http://sodipodi.sourceforge.net/DTD/sodipodi-0.dtd"
   xmlns:inkscape="http://www.inkscape.org/namespaces/inkscape"
   version="1.1"
   width="48"
   height="48"
   viewBox="0 0 13.546667 13.546667"
   id="svg4136"
   inkscape:version="0.92.4 (5da689c313, 2019-01-14)"
   sodipodi:docname="WallPlugS.svg">
  <metadata
     id="metadata4183">
    <rdf:RDF>
      <cc:Work
         rdf:about="">
        <dc:format>image/svg+xml</dc:format>
        <dc:type
           rdf:resource="http://purl.org/dc/dcmitype/StillImage" />
        <dc:title />
      </cc:Work>
    </rdf:RDF>
  </metadata>
  <defs
     id="defs4181" />
  <sodipodi:namedview
     pagecolor="#ffffff"
     bordercolor="#666666"
     borderopacity="1"
     objecttolerance="10"
     gridtolerance="10"
     guidetolerance="10"
     inkscape:pageopacity="0"
     inkscape:pageshadow="2"
     inkscape:window-width="1920"
     inkscape:window-height="1017"
     id="namedview4179"
     showgrid="false"
     units="px"
     inkscape:zoom="16.263456"
     inkscape:cx="17.732046"
     inkscape:cy="27.192048"
     inkscape:window-x="-8"
     inkscape:window-y="-8"
     inkscape:window-maximized="1"
     inkscape:current-layer="svg4136" />
  <!-- Working space 0 0 420 297 -->
  <g
     id="g866">
    <path
       style="fill:#d79307;stroke-width:0.03557194"
       d="m 6.4647233,13.415892 c -0.042434,-0.0052 -0.1825388,-0.016 -0.3113438,-0.02405 -0.1901259,-0.01189 -0.2515473,-0.0287 -0.3264323,-0.08933 -0.089107,-0.07215 -0.095656,-0.07321 -0.1927278,-0.03119 -0.096172,0.04163 -0.1081964,0.04151 -0.2800514,-0.0028 -0.098761,-0.02544 -0.2654061,-0.08342 -0.3703235,-0.128854 -0.1649633,-0.07143 -0.1525045,-0.06919 0.092134,0.01662 0.319516,0.112061 0.406202,0.124912 0.297318,0.04408 C 5.3322892,13.169954 5.2368549,13.0941 5.1612199,13.031835 5.0619239,12.950091 4.9630607,12.905983 4.8055237,12.873143 4.5671515,12.823452 4.2445769,12.712614 4.057495,12.616119 3.9108598,12.540486 3.7407359,12.37494 3.7414768,12.308604 c 3.035e-4,-0.02706 0.044293,0.01169 0.097757,0.0861 0.073056,0.101689 0.168395,0.167092 0.3837258,0.263236 0.2265203,0.101141 0.6630462,0.228788 0.7824043,0.228788 0.010548,0 0.019179,-2.097195 0.019179,-4.6604343 V 3.5658631 l 0.2314576,0.037721 0.2314575,0.037721 v 4.671916 c 0,4.1364139 0.00884,4.6719159 0.077153,4.6719159 0.06819,0 0.078646,-0.439405 0.090011,-3.7824348 C 5.669391,4.8584098 5.653362,2.1063956 5.612212,1.9221955 L 5.5836832,1.7944885 5.3169719,1.7531082 C 4.40167,1.6110991 3.7381698,1.3119425 3.7389549,1.0416175 3.7394728,0.86332056 3.8328188,0.76385497 4.1410027,0.61321273 4.4712509,0.45178532 4.880563,0.34247686 5.4448375,0.2650184 5.9214078,0.19959918 7.0560021,0.17283078 7.574325,0.2147776 9.3179238,0.35588351 10.229689,0.87511175 9.5417242,1.3351638 l -0.1452057,0.097101 0.00114,2.5352277 0.00114,2.5352277 0.1049753,-0.061503 c 0.057737,-0.033827 0.13626,-0.094715 0.1744963,-0.1353066 0.038237,-0.040592 0.088852,-0.071262 0.1124801,-0.068154 0.023627,0.00311 0.2473208,-0.090993 0.4970958,-0.2091103 0.249775,-0.1181177 0.46966,-0.2157289 0.488633,-0.2169139 0.01897,-0.00119 0.208088,-0.081524 0.420258,-0.1785312 0.212169,-0.097007 0.42511,-0.1824049 0.473203,-0.1897725 0.241413,-0.036984 0.628508,0.1751089 0.508781,0.2787656 -0.02699,0.02337 -0.249611,0.1365898 -0.494708,0.2516005 -0.578273,0.271352 -1.153454,0.6801211 -1.513244,1.07543 -0.2558444,0.2811007 -0.4625215,0.4353574 -0.4677381,0.3491024 -0.00115,-0.019011 -0.070587,0.00376 -0.154305,0.05061 -0.145344,0.08133 -0.1522147,0.095661 -0.1522147,0.3174781 0,0.2313465 4.115e-4,0.2321185 0.1036755,0.1874272 0.057021,-0.024682 0.1483041,-0.1121943 0.2028509,-0.1944723 0.054547,-0.082278 0.1004757,-0.1316144 0.1020645,-0.109637 0.00547,0.075616 -0.147372,0.2434334 -0.3096932,0.340043 L 9.3327983,8.0865626 9.5123604,8.2417879 C 9.867856,8.5491009 9.8814796,8.7105547 9.5701795,8.9270084 9.4023327,9.043716 9.3965185,9.055714 9.3965185,9.2853807 V 9.523003 L 9.5004357,9.459816 c 0.057155,-0.034753 0.1372585,-0.099902 0.1780094,-0.1447746 0.04075,-0.044873 0.074998,-0.067021 0.076105,-0.049218 0.00274,0.0441 -0.086848,0.122206 -0.2646336,0.2307096 l -0.148892,0.09087 0.2037098,0.1937863 c 0.1120404,0.1065825 0.2189938,0.2327537 0.2376745,0.2803817 0.045145,0.1151 -0.042249,0.260726 -0.2314333,0.385639 -0.1424421,0.09405 -0.1543302,0.117788 -0.1528217,0.305156 0.00153,0.189487 0.0071,0.199858 0.082766,0.153971 0.044621,-0.02706 0.1243873,-0.09348 0.1772573,-0.147608 0.05287,-0.05412 0.096549,-0.0818 0.097065,-0.0615 0.0011,0.04333 -0.1720656,0.186643 -0.316188,0.26168 -0.1008717,0.05252 -0.1007581,0.05277 0.1180691,0.258313 0.1788369,0.167982 0.2190858,0.230576 0.2192962,0.341049 2.572e-4,0.138319 -0.1324076,0.301402 -0.2989886,0.367526 -0.066287,0.02631 -0.080912,0.0922 -0.080912,0.36454 v 0.332422 l 0.1096245,-0.06666 c 0.060294,-0.03666 0.1536847,-0.129487 0.2075351,-0.206278 0.053851,-0.07679 0.086355,-0.104229 0.072231,-0.06097 -0.047342,0.14499 -0.1696908,0.239407 -0.7205721,0.556075 -0.6001873,0.345011 -0.8399454,0.434366 -1.3658251,0.509031 -0.3158459,0.04484 -1.0662842,0.08249 -1.2347883,0.06194 z m 1.2426933,-0.08767 c 0.4595101,-0.06525 0.7658827,-0.170209 1.1604756,-0.397581 L 9.197284,12.74084 8.9047258,12.8251 c -0.3137489,0.09037 -0.7354213,0.162966 -1.2312799,0.211996 -0.3841033,0.03798 -1.5092291,0.03766 -1.8456266,-5.24e-4 -0.1381277,-0.01568 -0.2604637,-0.02405 -0.2718578,-0.0186 -0.026457,0.01265 0.339683,0.307701 0.4062685,0.327384 0.2288873,0.06766 1.2162697,0.05796 1.7451866,-0.01714 z m -2.0664801,-0.0843 c 0.051258,-0.02954 0.037866,-0.0571 -0.070855,-0.145837 L 5.4360232,12.988676 V 8.3243699 3.6600635 l -0.131936,-0.023992 c -0.072565,-0.013196 -0.1535748,-0.023992 -0.1800225,-0.023992 -0.029656,0 -0.048087,1.783522 -0.048087,4.6533175 v 4.653318 l 0.2185988,0.180517 c 0.1202293,0.09928 0.233124,0.180653 0.2508771,0.180819 0.017753,1.72e-4 0.06072,-0.01609 0.095482,-0.03612 z M 8.4463221,12.908979 C 8.600352,12.881415 8.8655853,12.8144 9.0357297,12.760056 l 0.3093538,-0.09881 v -0.334369 -0.33437 l -0.1157288,0.05016 C 9.0448193,12.12266 8.6524829,12.222662 8.2774631,12.2853 l -0.3468422,0.05793 -0.014393,0.323804 -0.014393,0.323804 0.1322167,-0.01587 c 0.072719,-0.0087 0.2582413,-0.03843 0.4122706,-0.06599 z M 7.6772577,12.326828 c -0.012877,-0.0062 0.2240272,-0.09887 0.5264548,-0.20602 0.3024275,-0.107152 0.555496,-0.202832 0.5623738,-0.212623 0.00688,-0.0098 -0.057861,-0.03696 -0.1438637,-0.06037 l -0.1563685,-0.04257 -0.5762269,0.203244 c -0.7455129,0.262954 -0.9105539,0.318192 -0.9105539,0.304752 0,-0.0061 0.3240405,-0.123995 0.7200901,-0.262078 0.3960495,-0.138082 0.72009,-0.261843 0.72009,-0.275022 0,-0.03243 -0.022687,-0.02536 -0.8685633,0.270578 -0.6063148,0.212125 -0.7224479,0.262286 -0.6429376,0.277701 0.1014998,0.01968 0.8102515,0.0219 0.7695052,0.0024 z m 0.5718184,-0.06887 c 0.1051105,-0.03236 0.4273523,-0.234868 0.4273523,-0.268558 0,-0.01379 -0.7796029,0.25788 -0.9001125,0.313663 -0.077683,0.03596 0.3384145,-0.0037 0.4727602,-0.0451 z M 7.5165552,11.987605 c 0.4116164,-0.144094 0.7466768,-0.269199 0.7445788,-0.27801 -0.0021,-0.0088 -0.042665,-0.05803 -0.09015,-0.109383 l -0.086335,-0.09336 -0.834265,0.290172 c -0.458846,0.159594 -0.8348158,0.295707 -0.8354886,0.302472 -6.738e-4,0.0068 0.045927,0.04929 0.1035546,0.0945 0.064589,0.05067 0.1325748,0.0771 0.1772451,0.0689 0.039856,-0.0073 0.4092431,-0.131196 0.8208594,-0.27529 z m 1.3349529,0.150616 c 0.6526253,-0.175417 0.9987448,-0.451852 0.8632506,-0.689452 -0.041368,-0.07254 -0.041634,-0.07244 -0.352518,0.135307 -0.171115,0.114346 -0.3046125,0.211669 -0.2966607,0.216271 0.00795,0.0046 0.1441441,-0.03846 0.3026493,-0.0957 0.1585052,-0.05724 0.2982283,-0.09927 0.3104966,-0.0934 0.012268,0.0059 -0.1599772,0.07372 -0.3827675,0.150794 -0.2776909,0.09606 -0.4786875,0.190494 -0.6391663,0.300295 -0.1287516,0.08809 -0.2081605,0.160169 -0.1764653,0.160169 0.031696,0 0.1987274,-0.03793 0.3711813,-0.08428 z M 7.3041965,11.756059 c 0.5084304,-0.177746 0.8064469,-0.297818 0.8064469,-0.324921 0,-0.03776 -0.039143,-0.03414 -0.3214688,0.02966 -0.1768078,0.03996 -0.5587127,0.156033 -0.8486775,0.257946 -0.4691166,0.164879 -0.5272088,0.19358 -0.5272088,0.260473 0,0.04135 0.019004,0.07149 0.042231,0.06698 0.023227,-0.0045 0.4051324,-0.135069 0.8486775,-0.290132 z m 1.9599185,-0.139328 0.385186,-0.261352 -0.1034543,-0.09699 -0.1034543,-0.09699 -0.091087,0.05698 c -0.1952138,0.122116 -0.8291822,0.558881 -0.8291822,0.571255 0,0.01446 0.261258,0.08591 0.3198491,0.08747 0.020326,5.41e-4 0.2102905,-0.116623 0.4221425,-0.260367 z m -2.2390691,0.0474 c 0.1242973,-0.04469 0.2117266,-0.08126 0.1942875,-0.08126 -0.099278,0 -0.615893,0.137633 -0.6794044,0.181003 -0.1790535,0.122269 -0.069896,0.09983 0.4851169,-0.09974 z m 1.9336789,-0.216568 c 0.2404726,-0.162368 0.436997,-0.306285 0.4367208,-0.319816 -2.572e-4,-0.01353 -0.020939,-0.04004 -0.045918,-0.0589 -0.036241,-0.02738 -0.1175259,-0.01138 -0.4023822,0.0792 -0.1963315,0.06243 -0.3934747,0.120206 -0.4380956,0.128396 -0.04462,0.0082 -0.1430973,0.05766 -0.2188369,0.109934 -0.1068063,0.07372 -0.1300652,0.111689 -0.1036477,0.169217 0.038339,0.08349 0.2200955,0.205623 0.2894407,0.194491 0.025023,-0.004 0.242246,-0.140149 0.4827185,-0.302517 z m -0.5630307,-0.16283 c 0.2534162,-0.06926 0.5706992,-0.164304 0.7050731,-0.211206 l 0.2443163,-0.08528 V 10.78363 10.579011 l -0.3366791,0.105766 c -0.1851738,0.05817 -0.5087987,0.13182 -0.7191673,0.163663 l -0.3824877,0.0579 -0.00137,0.123006 c -7.561e-4,0.06765 -0.015965,0.181126 -0.033805,0.252162 -0.018698,0.07445 -0.012148,0.129156 0.015464,0.129156 0.026344,0 0.2552395,-0.05667 0.5086557,-0.125928 z m -0.1297684,0.08846 c 0.054355,-0.03133 0.051174,-0.03493 -0.01942,-0.02197 -0.046435,0.0085 -0.084428,0.02538 -0.084428,0.03746 0,0.03164 0.029774,0.02719 0.1038473,-0.0155 z m -0.099742,-0.669164 c 0.3372131,-0.118032 0.6131151,-0.220815 0.6131151,-0.228407 0,-0.0076 -0.069893,-0.03355 -0.1553188,-0.05769 L 8.4686607,10.374052 7.8910311,10.57701 c -0.3176965,0.111627 -0.6528537,0.229937 -0.7447937,0.26291 -0.09194,0.03297 -0.1671638,0.05398 -0.1671638,0.04669 0,-0.0073 0.3240405,-0.126905 0.7200901,-0.2658 0.6265066,-0.219716 0.7993509,-0.292604 0.6938751,-0.292604 -0.014418,0 -0.1995837,0.06089 -0.41148,0.135307 -0.2118957,0.07442 -0.5637359,0.197999 -0.7818666,0.274623 -0.4444745,0.156133 -0.4358808,0.175521 0.079238,0.17877 0.2654998,0.0017 0.2934593,-0.005 0.8872538,-0.212876 z m 0.027099,0.139617 c 0.097929,-0.01764 0.4831464,-0.240761 0.4831464,-0.279843 0,-0.01702 -0.7425167,0.236754 -0.874395,0.298846 -0.068186,0.0321 -0.056231,0.03425 0.10287,0.01842 0.099012,-0.0098 0.2287829,-0.02669 0.2883786,-0.03742 z M 7.4419883,10.583691 c 0.4101942,-0.143337 0.7636982,-0.268568 0.7855643,-0.278293 0.031883,-0.01418 -0.081228,-0.187055 -0.1431807,-0.218832 -0.0085,-0.0044 -0.3821888,0.121468 -0.830413,0.279622 -0.5596447,0.197468 -0.8096517,0.300144 -0.798031,0.327746 0.022032,0.05233 0.154878,0.150974 0.2028622,0.150633 0.020565,-1.48e-4 0.3730041,-0.11754 0.7831982,-0.260876 z m 1.4916152,0.100182 c 0.4091515,-0.117747 0.6718841,-0.263296 0.769677,-0.426388 0.055853,-0.09315 0.036165,-0.08902 -0.4803551,0.100728 -0.4069363,0.14949 -0.9083849,0.456086 -0.6950783,0.424985 0.067575,-0.0099 0.2501655,-0.05455 0.4057564,-0.09933 z M 7.3329981,10.315907 c 0.4786809,-0.167345 0.7747552,-0.287043 0.7758595,-0.313666 0.00245,-0.059013 -0.023583,-0.055862 -0.4438399,0.05372 -0.2026601,0.05284 -0.3857507,0.08867 -0.4068678,0.07961 -0.021117,-0.0091 -0.019889,-0.0012 0.00273,0.01747 0.028149,0.02323 0.018579,0.03031 -0.03033,0.02242 -0.1651933,-0.02665 -0.7658261,0.144663 -0.7658261,0.218425 0,0.0301 0.039527,0.02443 0.1800225,-0.02585 0.099012,-0.03543 0.2668191,-0.09333 0.3729038,-0.128649 l 0.1928813,-0.06423 -0.154305,0.0647 c -0.084868,0.03558 -0.2636507,0.100464 -0.3972948,0.14418 -0.2061304,0.06743 -0.2431914,0.0918 -0.2443163,0.16066 -0.00162,0.09924 -0.06521,0.115077 0.9183833,-0.228783 z M 9.2610778,10.188705 9.6468331,9.9261958 9.5432261,9.8290602 C 9.4862417,9.7756355 9.4215859,9.7415443 9.399546,9.7533022 9.2948449,9.809158 8.5128826,10.356332 8.5292184,10.362309 c 0.1061891,0.03886 0.2804411,0.0889 0.3095364,0.0889 0.020112,0 0.2101572,-0.118129 0.422323,-0.262508 z m 0.2640282,0.03259 c 0.113157,-0.04114 0.2130191,-0.07706 0.2219153,-0.07983 0.0089,-0.0028 1.029e-4,-0.04595 -0.019484,-0.09596 C 9.6933149,9.9582581 9.6883371,9.9564213 9.60405,9.9999433 9.5557453,10.024886 9.4031459,10.122787 9.2649411,10.217502 9.0319678,10.377163 9.0247962,10.3863 9.1665125,10.3429 9.250582,10.317154 9.411949,10.262433 9.525106,10.221299 Z M 8.9494588,10.02257 C 9.1953418,9.8544693 9.3961641,9.7077846 9.395731,9.6966038 9.3953196,9.6854233 9.3745522,9.6608736 9.3496293,9.6420495 9.3136588,9.6148804 9.2077901,9.6370908 8.8361717,9.74977 8.3094922,9.9094653 8.1333098,10.012745 8.1872368,10.130181 c 0.033834,0.07368 0.2079738,0.198026 0.2773226,0.198026 0.020812,0 0.239017,-0.137536 0.4848994,-0.305637 z M 8.9207447,9.6984379 9.3450835,9.5666736 V 9.3189279 9.0711822 l -0.2346748,0.077226 c -0.2728781,0.089798 -0.7976972,0.206886 -1.0383416,0.231656 -0.1651397,0.016998 -0.1671637,0.018926 -0.1671637,0.1592502 0,0.078124 -0.015091,0.2110997 -0.033535,0.2955013 L 7.8378342,9.9882735 8.1671201,9.9092377 C 8.3482273,9.8657681 8.6873584,9.7709081 8.9207447,9.6984379 Z M 8.2649484,9.9316843 c 0,-0.013531 -0.023146,-0.017759 -0.051435,-0.0094 -0.028289,0.00836 -0.051435,0.026275 -0.051435,0.039805 0,0.013531 0.023146,0.017759 0.051435,0.0094 0.028289,-0.00836 0.051435,-0.026275 0.051435,-0.039805 z M 8.1866926,9.1911202 8.8322359,8.9642777 8.6502249,8.9196157 C 8.5460664,8.8940573 8.4396659,8.8832271 8.4014708,8.8942959 8.1651516,8.9627812 7.0305083,9.377957 7.0305083,9.3959427 c 0,0.012111 0.1148945,0.02202 0.2553208,0.02202 0.2410049,0 0.2915166,-0.012719 0.9008635,-0.2268425 z M 7.685155,9.1204456 C 8.5226285,8.8245544 8.4437416,8.8556474 8.4045461,8.8369003 8.3674486,8.8191567 6.8293249,9.3461548 6.8265994,9.3775427 6.8231892,9.4168087 6.9750907,9.3713213 7.685155,9.1204456 Z m 0.3483359,0.240339 C 8.2597627,9.3329575 8.3149422,9.3123542 8.4926928,9.1893251 8.6038079,9.1124175 8.7044086,9.054127 8.7162499,9.0597906 c 0.011841,0.00566 -0.051251,0.060893 -0.1402046,0.1227318 -0.088954,0.061839 -0.1482794,0.1124343 -0.1318356,0.1124343 0.063776,0 0.525407,-0.1220256 0.724803,-0.1915917 0.2462379,-0.085908 0.5361158,-0.2842039 0.5361158,-0.3667385 0,-0.053519 -0.029972,-0.04719 -0.3986212,0.084172 -0.2192418,0.078123 -0.4256875,0.158648 -0.4587689,0.178944 -0.033081,0.020296 -0.079909,0.036902 -0.1040633,0.036902 -0.024154,0 -0.2744304,0.080261 -0.5561698,0.1783587 C 7.9057659,9.3131001 7.6979912,9.393148 7.7257841,9.392887 7.7535765,9.3926262 7.8920446,9.3781799 8.0334909,9.3607846 Z M 7.5191409,9.0493993 C 7.9151904,8.9111366 8.2477681,8.7941139 8.2582022,8.7893486 c 0.010434,-0.00477 -0.022913,-0.0571 -0.074105,-0.116299 L 8.0910199,8.5654145 7.255394,8.8588564 C 6.4448277,9.1434982 6.4212828,9.1542529 6.4702793,9.2174772 c 0.062998,0.081292 0.198393,0.1331356 0.2731168,0.1045785 0.03061,-0.011698 0.3796952,-0.1343939 0.7757448,-0.2726564 z M 7.4291296,8.7730489 C 7.8039622,8.6407163 8.1106434,8.5158103 8.1106434,8.4954801 c 0,-0.02033 -0.012233,-0.036964 -0.027184,-0.036964 -0.099869,0 -0.7417915,0.18123 -1.1641995,0.328681 C 6.4590757,8.9478345 6.415968,8.9698145 6.4146878,9.0444695 l -0.0014,0.081629 0.1671637,-0.056223 c 0.09194,-0.030922 0.473845,-0.1644948 0.8486781,-0.2968266 z M 9.262359,8.6805877 C 9.6558147,8.4119667 9.6573758,8.4102758 9.578942,8.3377308 9.53559,8.2976333 9.4802434,8.2589506 9.4559496,8.2517693 9.4179237,8.2405285 8.5992605,8.766873 8.5401231,8.8405831 c -0.011689,0.014569 0.054703,0.044562 0.1475377,0.06665 0.092835,0.022088 0.1711536,0.040868 0.1740417,0.041734 0.00289,8.659e-4 0.1831842,-0.1199053 0.4006565,-0.2683794 z M 7.1623902,8.6610015 c -0.031069,-0.01486 -0.4567094,0.094118 -0.5819382,0.1489959 -0.063651,0.027893 -0.1157287,0.065549 -0.1157287,0.08368 0,0.018434 0.1579656,-0.023575 0.3583554,-0.095301 C 7.020174,8.7278296 7.1728639,8.666011 7.1623902,8.6610015 Z m 2.5713856,-0.032545 c 0.0369,-0.028557 -0.022891,-0.1703006 -0.071311,-0.1690506 -0.018969,4.895e-4 -0.1780058,0.09985 -0.3534151,0.2208002 L 8.9901249,8.900116 9.3467454,8.7760534 C 9.5428866,8.707819 9.7170507,8.6414007 9.7337758,8.6284565 Z M 8.9522358,8.517018 C 9.3627144,8.238106 9.4024665,8.2014138 9.3517896,8.1482164 l -0.056275,-0.059075 -0.2401403,0.087673 c -0.1320774,0.04822 -0.3253264,0.1084595 -0.4294427,0.1338647 -0.2049993,0.050022 -0.4638532,0.1940671 -0.4638532,0.258122 0,0.066458 0.2254412,0.2592743 0.302049,0.2583377 0.017753,-2.209e-4 0.2374018,-0.139771 0.4881084,-0.3101208 z M 9.0598574,8.1510008 9.3445326,8.052596 9.3447898,7.8097337 9.345047,7.5668713 9.2293182,7.606834 C 8.937763,7.7075125 8.5800295,7.7950229 8.2568315,7.8447286 7.9075075,7.898452 7.9048648,7.8995273 7.9045588,7.9880277 7.9044045,8.0370709 7.8890712,8.1704791 7.8705191,8.2844904 L 7.8367875,8.4917836 8.3059668,8.3705946 C 8.5640517,8.3039406 8.9032861,8.2051235 9.0598574,8.1510008 Z M 8.2649484,8.431011 c 0,-0.013531 -0.023146,-0.017759 -0.051435,-0.0094 -0.028289,0.00836 -0.051435,0.026275 -0.051435,0.039805 0,0.013531 0.023146,0.017759 0.051435,0.0094 0.028289,-0.00836 0.051435,-0.026275 0.051435,-0.039805 z M 8.0997983,7.8380371 c 0.076688,-0.015455 0.1741512,-0.030382 0.2165851,-0.033171 0.1358177,-0.00893 0.3827526,-0.061988 0.4756797,-0.1022118 0.049558,-0.021451 0.090105,-0.031064 0.090105,-0.02136 0,0.022974 0.4496093,-0.1314671 0.5270509,-0.1810427 0.049574,-0.031736 0.047472,-0.032958 -0.01261,-0.00733 -0.039655,0.016913 -0.1121864,0.030752 -0.1611808,0.030752 -0.048994,0 -0.1400467,0.034235 -0.2023391,0.076076 -0.080294,0.053934 -0.1248271,0.067124 -0.1530058,0.045316 -0.029329,-0.022698 -0.09156,-0.011479 -0.2374301,0.042801 -0.1994192,0.074208 -0.3786085,0.1286466 -0.320598,0.0974 0.017265,-0.0093 0.1958825,-0.075769 0.396929,-0.1477116 L 9.0845241,7.5067489 8.8876982,7.4451128 8.6908719,7.3834767 8.1050061,7.5903869 C 7.7827802,7.7041874 7.4728493,7.8090446 7.4162708,7.8234026 7.2708682,7.8603022 7.3717292,7.8180772 7.6863046,7.7103544 8.0924719,7.5712671 8.010733,7.5784184 7.5705759,7.7204798 7.2128953,7.8359216 7.0883048,7.8910643 7.2537712,7.8606946 c 0.037927,-0.00696 0.101578,-0.00217 0.1414463,0.010643 0.084474,0.027152 0.5026887,0.00739 0.7045808,-0.033301 z M 7.7788038,7.5567344 8.512807,7.2945842 8.4289793,7.2061673 C 8.382874,7.1575378 8.3406839,7.1140965 8.335223,7.1096309 8.3180211,7.0955632 6.7733333,7.6497282 6.7733333,7.6699673 c 0,0.024191 0.2029692,0.1489173 0.242337,0.1489173 0.016021,0 0.3594315,-0.1179677 0.7631335,-0.2621502 z m 0.00897,-0.2871229 C 8.3431636,7.0761607 8.3650723,7.0650791 8.3664189,6.9769318 l 0.0014,-0.091616 -0.2650363,0.074744 C 7.9570117,7.0011686 7.621335,7.1115867 7.3568341,7.2054332 7.0923332,7.2992796 6.8593928,7.3760629 6.8391896,7.3760629 c -0.020203,0 0.1674066,-0.071959 0.4169106,-0.1599078 0.249504,-0.087949 0.437288,-0.1599078 0.4172983,-0.1599078 -0.01999,0 -0.1971827,0.040425 -0.3937627,0.089833 C 6.873002,7.2482825 6.7955424,7.3023262 6.7773457,7.4965291 l -0.01244,0.1327668 0.2228128,-0.07931 C 7.110265,7.5063649 7.470291,7.3801967 7.7877751,7.2696115 Z m 0.3294294,0.2848101 c 0.063978,-0.039019 0.062159,-0.039889 -0.01942,-0.00929 -0.085678,0.032138 -0.1129246,0.05234 -0.070592,0.05234 0.010681,0 0.051186,-0.019373 0.090011,-0.043052 z M 9.5829534,7.2223054 C 9.9492941,6.8728837 10.45842,6.5306694 10.96461,6.29361 11.181299,6.19213 11.389449,6.0812074 11.427165,6.0471153 11.57938,5.9095264 11.212652,5.730254 10.931377,5.8047524 c -0.06622,0.017538 -0.143542,0.028613 -0.171831,0.024611 -0.02829,-0.004 -0.03587,1.723e-4 -0.01685,0.00926 0.01902,0.0091 -0.124091,0.081858 -0.318023,0.1616912 C 9.8149978,6.251293 9.1314163,6.6708387 8.7178727,7.0478578 8.5076964,7.2394706 8.5017295,7.2507048 8.5863652,7.2954359 c 0.07115,0.037603 0.0761,0.053601 0.025067,0.081007 -0.053408,0.02868 -0.049909,0.029223 0.02184,0.00339 0.063742,-0.02295 0.094736,-0.02356 0.1220743,-0.0024 0.034797,0.026929 0.4183338,0.119952 0.4992956,0.1210987 0.02098,2.976e-4 0.1687202,-0.1240034 0.3283106,-0.2762233 z M 8.4772495,7.4314156 c 0.063978,-0.039019 0.062159,-0.039889 -0.01942,-0.00929 -0.049506,0.01857 -0.090011,0.037944 -0.090011,0.043052 0,0.020248 0.042238,0.00722 0.1094311,-0.033764 z m 1.2443984,-0.067653 c 0.08866,0 0.1587346,-0.055273 0.3945491,-0.3112079 0.157708,-0.1711643 0.421941,-0.409181 0.587184,-0.5289259 C 10.984495,6.319917 10.991499,6.31145 10.812253,6.3920148 10.512352,6.5268102 9.9509565,6.920365 9.6541858,7.2038545 9.4537862,7.3952861 9.4135564,7.4494279 9.4988068,7.4129647 9.562076,7.3859034 9.6623547,7.3637623 9.7216479,7.3637626 Z M 9.0446573,6.743043 9.2051494,6.6314721 9.0413598,6.6893912 C 8.8372014,6.7615859 8.4189752,7.0508837 8.4191346,7.1198003 8.4193918,7.2243495 8.493076,7.1993476 8.6860411,7.0292544 8.7950093,6.9332022 8.9563866,6.804407 9.0446573,6.743043 Z M 8.6485836,6.8745799 c 0.080576,-0.05256 0.1255909,-0.090951 0.1000323,-0.085315 -0.295744,0.065222 -0.3293625,0.080823 -0.3293625,0.1528453 0,0.080012 0.00573,0.078327 0.2293302,-0.06753 z m -0.2577151,-0.0182 C 8.6469387,6.7870444 8.9663933,6.6920021 9.1007672,6.6451742 L 9.3450835,6.5600327 V 4.0159034 c 0,-1.3992711 -0.014028,-2.5441292 -0.031175,-2.5441292 -0.017146,0 -0.1155153,0.031481 -0.2185987,0.069959 -0.2142716,0.07998 -0.6456827,0.1772788 -0.9855719,0.2222832 l -0.2323627,0.030767 9.052e-4,2.5938065 c 5.144e-4,1.4265935 0.011278,2.5938172 0.023955,2.5938305 0.012677,1.3e-5 0.2325618,-0.056705 0.4886331,-0.1260405 z M 12.12546,5.7240594 c 0.104879,-0.091165 -0.168779,-0.2668903 -0.415631,-0.2668903 -0.03179,0 -0.196163,0.063121 -0.365266,0.1402682 l -0.307459,0.1402682 0.186515,0.045767 c 0.18404,0.04516 0.354109,0.175747 0.295606,0.2269798 -0.0156,0.013665 0.1039,-0.036043 0.265564,-0.1104617 0.161665,-0.074419 0.314967,-0.1535877 0.340671,-0.1759312 z M 7.2890325,1.8153764 C 9.0880324,1.7104703 10.113969,1.2445191 9.5893458,0.77063996 9.4722751,0.66489295 9.1042206,0.50489952 8.805016,0.42969167 8.1459643,0.26403295 7.4752503,0.20416792 6.5021093,0.22414414 5.4215448,0.2463255 4.6833217,0.37334665 4.1681407,0.62573462 3.4808315,0.96244838 3.7387512,1.3731437 4.7930856,1.6208582 5.2887903,1.7373234 5.7142979,1.7910496 6.3344759,1.81548 6.5899922,1.825546 6.8112311,1.835358 6.8261174,1.837287 6.8410044,1.839217 7.049316,1.829357 7.2890325,1.8153764 Z M 6.0789607,1.6667037 C 4.7322695,1.538688 4.0327468,1.1617011 4.4738623,0.80168385 5.1578337,0.24345929 7.9659742,0.18948112 8.9090073,0.71643136 9.6885598,1.1520314 8.6539133,1.6498945 6.9043907,1.6810357 6.5918505,1.6865989 6.220407,1.6801495 6.0789607,1.6667037 Z M 5.8475032,1.0190597 V 0.41873786 L 5.6228086,0.4510818 c -0.9916372,0.1427424 -1.4511867,0.45725663 -1.12076,0.7670447 0.1066826,0.100019 0.3063678,0.1857284 0.6253646,0.2684205 0.172222,0.044644 0.6005095,0.126924 0.6815138,0.1309278 0.021217,0.00105 0.038576,-0.2682381 0.038576,-0.5984151 z m 2.301824,0.5215948 C 8.2979044,1.5143356 8.5322258,1.4501713 8.6700413,1.3980672 9.4876619,1.0889477 9.1625515,0.65870461 7.961145,0.45993184 7.8081979,0.43462672 7.6751098,0.41392252 7.6653937,0.41392252 c -0.00972,0 -0.017665,0.27197427 -0.017665,0.60438728 v 0.6043873 l 0.1157287,-0.017095 c 0.063651,-0.0094 0.2372923,-0.038629 0.3858698,-0.064948 z M 3.9302424,11.859587 c -0.2768036,-0.146294 -0.252277,-0.459906 0.048843,-0.624529 0.064588,-0.03531 0.057353,-0.05955 -0.058472,-0.195883 -0.072698,-0.08557 -0.1430869,-0.216892 -0.1564195,-0.29182 l -0.024241,-0.136234 0.066789,0.159908 c 0.036734,0.08795 0.1682874,0.270613 0.292341,0.40592 0.1861168,0.203 0.2291866,0.278823 0.2463405,0.433675 0.012459,0.112471 -0.00261,0.208579 -0.037618,0.239862 -0.071302,0.06372 -0.2653608,0.0684 -0.3775628,0.0091 z m 0.2408352,-0.03686 0.084912,-0.05535 -0.05473,0.05535 c -0.03129,0.03165 -0.034284,0.05535 -0.00699,0.05535 0.081212,0 0.1011938,-0.05874 0.088644,-0.260589 -0.012204,-0.196293 -0.1491663,-0.416904 -0.2418228,-0.389514 -0.067744,0.02002 -0.2509887,0.1985 -0.2509887,0.244455 0,0.03066 0.039262,0.02481 0.1814225,-0.02705 0.099782,-0.0364 0.1928359,-0.06073 0.2067856,-0.05405 0.01395,0.0067 -0.06769,0.04158 -0.1814225,0.07758 -0.1745725,0.05526 -0.2067856,0.07859 -0.2067856,0.149756 0,0.12772 0.075228,0.124418 0.2573029,-0.01129 0.090695,-0.0676 0.1767229,-0.122911 0.1911721,-0.122911 0.030068,0 -0.098108,0.09968 -0.2723334,0.211784 -0.1085025,0.06982 -0.1121357,0.08107 -0.041712,0.129156 0.097612,0.06666 0.1409123,0.06619 0.2465448,-0.0027 z m 5.5895467,-1.213659 c 0.00247,-0.02866 0.014656,-0.03449 0.031075,-0.01486 0.014858,0.01776 0.013031,0.03898 -0.00406,0.04715 -0.017092,0.0082 -0.029248,-0.0064 -0.027015,-0.03229 z M 3.942354,10.42563 C 3.686028,10.30303 3.662286,10.064803 3.8873814,9.8740354 L 4.0360948,9.7480014 3.9122867,9.6024494 C 3.8441922,9.5223956 3.7781464,9.3955518 3.7655181,9.3205742 l -0.02296,-0.1363229 0.052986,0.1451715 c 0.029142,0.079844 0.1581207,0.2569731 0.2866194,0.3936192 0.1971404,0.2096402 0.2377079,0.27956 0.2597154,0.447631 0.028559,0.218105 -0.026645,0.305141 -0.1935395,0.305141 -0.055583,0 -0.1482761,-0.02258 -0.2059844,-0.05018 z M 4.1813948,10.3953 c -0.025248,0.01788 -0.029776,0.04022 -0.010062,0.04965 0.019714,0.0094 0.052949,0.0039 0.073856,-0.01227 0.053471,-0.04138 0.067537,-0.324452 0.020201,-0.406554 L 4.2259678,9.957748 4.0080357,10.034405 c -0.1811226,0.06371 -0.2179322,0.09059 -0.2179322,0.15918 0,0.04539 0.018331,0.08794 0.040736,0.09457 0.022405,0.0066 0.1186101,-0.04254 0.2137899,-0.109254 0.09518,-0.06671 0.1823706,-0.121295 0.1937574,-0.121295 0.02937,0 -0.02807,0.04485 -0.2234734,0.174506 l -0.170311,0.113004 0.1047385,0.05377 c 0.1011528,0.05193 0.1077034,0.05223 0.1913494,0.0088 0.047636,-0.02471 0.065953,-0.0303 0.040705,-0.01242 z M 4.0409676,9.9897825 C 4.198393,9.9269225 4.2061525,9.9170988 4.1472322,9.8552472 4.0708907,9.775108 4.0265594,9.7847443 3.892238,9.9106759 3.7183649,10.073689 3.7665928,10.09934 4.0409676,9.9897825 Z M 9.7606243,9.1822013 c 0.00247,-0.028659 0.014656,-0.034488 0.031075,-0.014863 0.014858,0.017759 0.013031,0.038978 -0.00406,0.047152 -0.017092,0.00817 -0.029248,-0.00636 -0.027015,-0.032289 z M 3.9207933,8.90775 C 3.6804429,8.7837723 3.6750199,8.5072115 3.9096145,8.337657 L 4.0444695,8.2401898 3.9176634,8.1030472 C 3.8479202,8.0276189 3.7794038,7.9023813 3.765405,7.8247414 L 3.7399526,7.683578 3.8058255,7.8434858 c 0.03623,0.087949 0.1668492,0.2650779 0.2902647,0.3936192 0.1907765,0.1987 0.2279479,0.2635502 0.2481304,0.4328946 C 4.3795575,8.9664999 4.2144329,9.0592157 3.9207933,8.90775 Z M 4.2897656,8.625496 C 4.2745144,8.5450496 4.2495015,8.4732347 4.2341814,8.465907 4.2188614,8.4585796 4.1126765,8.4880609 3.9982149,8.531421 3.8315392,8.5945607 3.790103,8.6261733 3.790103,8.6901942 c 0,0.1247151 0.054252,0.1223812 0.2411723,-0.010375 0.095172,-0.067594 0.1846136,-0.1228987 0.1987582,-0.1228987 0.014145,0 -0.055907,0.057972 -0.1556715,0.1288278 -0.2073962,0.1472993 -0.2122888,0.158482 -0.096184,0.219845 0.081651,0.043153 0.090505,0.041301 0.212261,-0.0444 C 4.30127,8.7831813 4.3139539,8.7530836 4.2897656,8.625496 Z m -0.016533,0.28613 c 0.056276,-0.070143 0.032734,-0.094453 -0.044296,-0.045742 -0.041534,0.026265 -0.076253,0.056057 -0.077153,0.066205 -0.00305,0.034378 0.090032,0.018695 0.121449,-0.020463 z M 4.0388716,8.4875012 C 4.2064954,8.4209897 4.208829,8.4174611 4.1391867,8.3358282 L 4.0678857,8.252251 3.9587213,8.3369325 C 3.8340036,8.433679 3.7576007,8.5572407 3.8231033,8.5562589 3.847387,8.5558948 3.9444828,8.5249539 4.0388716,8.4875012 Z M 3.892973,7.353354 C 3.892973,7.340864 3.828297,7.29935 3.7492477,7.261099 3.6477353,7.2119798 3.5245317,7.0795584 3.3297682,6.8102353 2.9630638,6.3031486 2.4277657,5.7554341 1.8166989,5.2620698 1.2937202,4.839826 1.2472061,4.7684897 1.4526007,4.7036694 1.5439833,4.6748302 1.5854614,4.676957 1.759552,4.719409 L 1.960843,4.768494 2.258253,4.6277281 C 2.4218284,4.5503065 2.5556629,4.477778 2.5556629,4.4665532 c 0,-0.040601 -0.3281342,-0.088442 -0.4364758,-0.063637 -0.099759,0.02284 -0.1000234,0.022346 -0.00714,-0.013356 0.175119,-0.067311 0.3822819,-1.23e-4 0.7167585,0.2324615 0.3610053,0.2510322 0.9215571,0.6901472 0.896379,0.7021897 C 3.7152085,5.3289828 3.6161516,5.258448 3.5050582,5.1674668 3.3939647,5.0764859 3.1446925,4.8869971 2.9511199,4.7463806 L 2.5991696,4.4907143 2.2945238,4.6349051 C 2.1269685,4.7142101 1.9898779,4.7895062 1.9898779,4.80223 c 0,0.012724 0.1900068,0.1625227 0.4222373,0.3328865 0.2322305,0.1703636 0.62367,0.4912124 0.8698655,0.7129972 0.3519636,0.317066 0.4525954,0.3906728 0.4708707,0.3444168 0.012783,-0.032356 0.026395,-0.00575 0.030247,0.059114 0.00385,0.064868 0.088015,0.230763 0.1870271,0.3686552 0.1539495,0.2144019 0.1800225,0.2830112 0.1800225,0.4737168 0,0.2207429 -0.041365,0.2820466 -0.1903095,0.2820466 -0.036776,0 -0.066866,-0.010219 -0.066866,-0.022709 z M 4.0987131,7.299356 c 0,-0.013531 -0.023146,-0.017759 -0.051435,-0.0094 -0.028289,0.00836 -0.051435,0.026275 -0.051435,0.039805 0,0.013531 0.023146,0.017759 0.051435,0.0094 0.028289,-0.00836 0.051435,-0.026275 0.051435,-0.039805 z M 4.0882889,7.180537 C 4.0764459,7.131916 4.0439839,7.11775 3.9444081,7.11775 c -0.1493103,0 -0.1972684,0.075543 -0.1020063,0.1606798 0.05658,0.050566 0.062509,0.050889 0.1599693,0.0087 0.061982,-0.026829 0.095283,-0.068145 0.085918,-0.106596 z M 3.738668,7.1300509 c 0,-0.040592 0.00594,-0.073804 0.013198,-0.073804 0.00726,0 0.088269,0.010298 0.1800225,0.022884 l 0.1668242,0.022884 V 6.9886803 C 4.0987131,6.6796919 3.3370389,5.866018 2.386938,5.1600412 1.8150207,4.7350756 1.6697013,4.66667 1.4587711,4.7231292 1.2988574,4.7659331 1.3710137,4.8607038 1.8706632,5.2641119 2.4852213,5.760295 3.022836,6.3118055 3.3855122,6.8181155 c 0.1518018,0.2119212 0.2933626,0.3854074 0.3145796,0.385525 0.021217,1.178e-4 0.038576,-0.032998 0.038576,-0.07359 z M 9.7606243,6.1808546 c 0.00247,-0.028659 0.014656,-0.034489 0.031075,-0.014863 0.014858,0.017759 0.013031,0.038978 -0.00406,0.047152 -0.017092,0.00817 -0.029248,-0.00636 -0.027015,-0.032289 z"
       id="path880"
       inkscape:connector-curvature="0" />
    <path
       style="fill:#bd8109;stroke-width:0.03557194"
       d="M 5.4874582,8.3129586 V 3.6407804 L 5.2688594,3.6059153 5.0502606,3.5710502 V 2.6587513 c 0,-0.5017643 0.013434,-0.9187164 0.029854,-0.9265601 0.01642,-0.00784 0.1364792,0.00312 0.2667991,0.024354 0.2340911,0.03815 0.2372879,0.04015 0.2653858,0.1659864 0.041065,0.1839098 0.057081,2.9389324 0.042323,7.2801706 -0.011365,3.3430298 -0.021822,3.7824348 -0.090011,3.7824348 -0.068309,0 -0.077153,-0.535532 -0.077153,-4.6721784 z m 2.4288108,4.3506284 0.014352,-0.321549 0.2700338,-0.04369 0.2700337,-0.04369 v 0.326023 0.326024 l -0.2406201,0.03921 c -0.1323413,0.02157 -0.2603146,0.03921 -0.2843852,0.03921 -0.024071,0 -0.037307,-0.144697 -0.029414,-0.32155 z M 6.9077525,12.323825 c -0.078996,-0.01483 0.040545,-0.06636 0.6429376,-0.27711 0.8458759,-0.295937 0.8685633,-0.303005 0.8685633,-0.270578 0,0.01318 -0.3240405,0.13694 -0.72009,0.275022 -0.3960496,0.138083 -0.7200901,0.256018 -0.7200901,0.262078 0,0.01347 0.1649402,-0.04176 0.9188555,-0.30769 0.5123322,-0.180716 0.5937986,-0.201748 0.6595865,-0.170282 0.065788,0.03147 -0.00758,0.06519 -0.5940454,0.273071 -0.6737472,0.238816 -0.7972544,0.264026 -1.0557174,0.215489 z m -0.3287479,-0.08111 c -0.034566,-0.01653 -0.061968,-0.04168 -0.060895,-0.05589 0.00108,-0.01421 0.3630478,-0.15226 0.8043879,-0.306783 0.7516907,-0.263185 0.806864,-0.278057 0.8724442,-0.23516 0.038504,0.02519 0.070007,0.05365 0.070007,0.06326 0,0.01847 -1.4519381,0.533216 -1.5599419,0.553039 -0.034736,0.0064 -0.091436,-0.0019 -0.1260019,-0.01847 z M 7.8715745,11.2815 c 0.017839,-0.07104 0.032679,-0.184509 0.032978,-0.252162 l 5.452e-4,-0.123006 0.2846444,-0.04008 0.2846439,-0.04008 -0.014707,0.224566 -0.014707,0.224566 -0.257175,0.06711 c -0.1414463,0.03691 -0.2777583,0.06737 -0.3029157,0.06768 -0.025157,3.18e-4 -0.031145,-0.05755 -0.013306,-0.128581 z M 6.9039407,10.896316 c -0.086341,-0.01615 -0.043793,-0.0389 0.2957512,-0.158179 1.3058561,-0.458715 1.2195615,-0.431127 1.2195615,-0.389896 0,0.01102 -0.3240405,0.133675 -0.72009,0.27257 -0.3960496,0.138895 -0.7200901,0.258505 -0.7200901,0.2658 0,0.0073 0.075224,-0.01371 0.1671638,-0.04669 0.9760157,-0.350039 1.322863,-0.461261 1.3963724,-0.447769 0.045311,0.0083 0.082384,0.02348 0.082384,0.0337 0,0.01022 -0.3036856,0.125277 -0.6748576,0.255681 -0.6752824,0.237247 -0.7948328,0.261791 -1.0461951,0.214778 z m -0.3349124,-0.08756 c -0.034428,-0.01984 -0.054621,-0.04648 -0.044874,-0.0592 0.00975,-0.01272 0.3764805,-0.149817 0.8149639,-0.304668 l 0.7972426,-0.281546 0.068909,0.06054 c 0.037899,0.0333 0.049472,0.06924 0.025717,0.07986 -0.097922,0.04381 -1.5373475,0.540568 -1.5670847,0.540812 -0.017753,1.48e-4 -0.060446,-0.01597 -0.094874,-0.03581 z M 7.8713688,9.8348159 c 0.018444,-0.084402 0.033535,-0.2169425 0.033535,-0.2945355 V 9.3992026 l 0.2185988,-0.028917 c 0.1202293,-0.015904 0.2475309,-0.034747 0.2828925,-0.041873 0.049088,-0.00989 0.064294,0.048537 0.064294,0.2470527 V 9.8354749 L 8.1542613,9.9118742 7.8378342,9.9882735 Z M 7.0305083,9.3959427 c 0,-0.01781 1.1310398,-0.431925 1.3677792,-0.5007946 0.074053,-0.021543 0.2380906,0.00291 0.2160208,0.032204 C 8.6060407,8.9383254 8.2989454,9.0532022 7.9318749,9.1826333 7.3348107,9.3931615 7.0305083,9.4651752 7.0305083,9.3959427 Z m -0.2039089,-0.0184 C 6.8293254,9.3461548 8.3674486,8.8191567 8.4045461,8.8369003 8.4437416,8.8556474 8.5226285,8.8245544 7.685155,9.1204456 6.9750907,9.3713213 6.8231892,9.4168087 6.8265994,9.3775427 Z M 6.5948723,9.3108454 C 6.5437943,9.2929815 6.5109746,9.2656744 6.5219396,9.2501629 6.5329045,9.2346516 6.9006349,9.0949551 7.3391183,8.9397264 8.0561784,8.6858782 8.142977,8.6616657 8.2021411,8.6989852 c 0.036179,0.022821 0.059325,0.054465 0.051435,0.070319 -0.00789,0.015855 -0.3383857,0.1419238 -0.7344352,0.280154 -0.3960496,0.1382303 -0.7451348,0.2608992 -0.7757448,0.2725976 -0.032715,0.012502 -0.093935,0.00788 -0.1485238,-0.01121 z M 7.8708858,8.2824409 c 0.018371,-0.1128841 0.03354,-0.2463316 0.03371,-0.2965501 3.086e-4,-0.085901 0.012677,-0.092899 0.2092654,-0.1182181 0.1149263,-0.014802 0.242228,-0.033018 0.2828925,-0.040482 0.061423,-0.011274 0.073935,0.030531 0.073935,0.2470204 V 8.3348016 L 8.1540864,8.4112429 7.837485,8.4876845 Z M 7.3952175,7.8699864 C 7.3553492,7.8579149 7.2916983,7.8537334 7.2537712,7.8606946 7.0883048,7.8910643 7.2128953,7.8359216 7.5705759,7.7204798 8.010733,7.5784184 8.0924719,7.5712671 7.6863046,7.7103544 7.3717292,7.8180772 7.2708682,7.8603022 7.4162708,7.8234026 7.4728493,7.8090446 7.7842024,7.703688 8.1081663,7.5892769 8.6740887,7.3894157 8.7015066,7.3828137 8.8072112,7.4209498 8.9149922,7.4598349 8.9048076,7.4650391 8.3067831,7.6766655 7.7206617,7.8840797 7.5566437,7.9188639 7.3952175,7.8699864 Z M 6.9149076,7.777651 C 6.8342519,7.7390733 6.8625339,7.7245461 7.3539419,7.5521382 7.6428261,7.4507849 7.9976726,7.3261439 8.1424894,7.2751581 l 0.263304,-0.092701 0.053432,0.05609 c 0.049866,0.052347 0.00446,0.073581 -0.6804964,0.3182136 -0.4036609,0.1441679 -0.7437574,0.2621236 -0.7557705,0.2621236 -0.012013,0 -0.060636,-0.018555 -0.1080509,-0.041233 z M 8.0077734,7.5881853 c 0,-0.00511 0.040505,-0.024482 0.090011,-0.043052 0.081579,-0.030601 0.083398,-0.029731 0.01942,0.00929 -0.067193,0.040979 -0.1094311,0.054011 -0.1094311,0.033764 z M 9.0042428,7.4518878 C 8.8875033,7.4265325 8.7755005,7.3930267 8.7553472,7.37743 8.7280082,7.356272 8.6970152,7.356882 8.6332729,7.37983 8.5615229,7.405664 8.5580249,7.405121 8.6114329,7.37644 8.6624659,7.349034 8.6575149,7.333037 8.5863659,7.295433 8.5017289,7.250701 8.5077049,7.23947 8.7180925,7.0478549 9.1892809,6.6187103 10.17899,6.0517588 10.823962,5.8415155 c 0.200267,-0.065282 0.22962,-0.068295 0.378284,-0.038842 0.09577,0.018974 0.188019,0.062471 0.227333,0.1071921 0.08956,0.101881 0.02748,0.1531182 -0.464968,0.3837419 C 10.45842,6.5306684 9.9492941,6.8728827 9.5829534,7.2223044 9.423363,7.3745244 9.2756231,7.4988249 9.2546428,7.4985277 9.2336619,7.49823 9.1209822,7.4772423 9.0042428,7.4518868 Z m -0.6364244,0.013292 c 0,-0.00511 0.040505,-0.024482 0.090011,-0.043052 0.081579,-0.030601 0.083398,-0.029731 0.01942,0.00929 -0.067193,0.040979 -0.1094311,0.054011 -0.1094311,0.033764 z M 3.3855122,6.8181155 C 3.022836,6.3118055 2.4852213,5.760295 1.8706632,5.2641119 1.3710137,4.8607038 1.2988574,4.7659331 1.4587711,4.7231292 1.6697013,4.66667 1.8150207,4.7350756 2.386938,5.1600412 3.3370389,5.866018 4.0987131,6.6796919 4.0987131,6.9886803 V 7.1020151 L 3.9318889,7.0791311 c -0.091753,-0.012586 -0.1727635,-0.022884 -0.1800225,-0.022884 -0.00726,0 -0.013198,0.033212 -0.013198,0.073804 0,0.040592 -0.017359,0.073707 -0.038576,0.07359 C 3.6788748,7.2035175 3.537314,7.0300367 3.3855122,6.8181155 Z M 7.8782847,4.3891733 7.8773846,1.795951 8.0840263,1.7676007 C 8.1976786,1.752008 8.3311725,1.7336749 8.3806787,1.7268605 8.4659929,1.7151172 8.47069,1.8480413 8.47069,4.2741558 v 2.5596853 l -0.2700338,0.074071 c -0.1485186,0.040739 -0.2816066,0.074164 -0.2957513,0.074277 -0.014145,1.23e-4 -0.026123,-1.166743 -0.026619,-2.5930155 z m 3.4825133,1.4318365 c -0.04872,-0.023304 0.0018,-0.060746 0.23242,-0.1722084 0.294297,-0.1422459 0.389485,-0.1663659 0.455361,-0.1153851 0.03099,0.023981 -0.519629,0.317372 -0.595622,0.317372 -0.01644,0 -0.05792,-0.0134 -0.09216,-0.029778 z M 2.2341942,5.0064532 C 2.0998202,4.907562 1.9898779,4.815951 1.9898779,4.8028735 c 0,-0.013078 0.136593,-0.088428 0.30354,-0.1674451 l 0.30354,-0.1436673 0.2879626,0.2057216 C 3.0432999,4.8106293 3.1715911,4.9143731 3.1700122,4.9280243 3.1670033,4.9540403 2.6591139,5.1542592 2.5447199,5.1745256 2.5051038,5.1815441 2.3803797,5.1140372 2.2341942,5.0064532 Z M 1.8577347,4.7409826 C 1.8377149,4.7254892 1.9586086,4.6484769 2.136563,4.5633619 2.385093,4.4444906 2.4639475,4.4194134 2.5139696,4.4433388 2.5639917,4.4672642 2.5134964,4.5043758 2.2722921,4.6209595 1.9537988,4.7749 1.9157833,4.7859063 1.8577347,4.7409826 Z M 5.5903282,1.5845634 5.4103057,1.5534886 V 1.0171725 0.48085632 L 5.6289044,0.44998486 5.8475032,0.41911342 V 1.0192474 c 0,0.3300737 -0.017359,0.5992918 -0.038576,0.5982624 C 5.78771,1.6164805 5.6893406,1.6016546 5.5903282,1.5845634 Z M 7.6477284,1.016652 V 0.41060689 l 0.1157287,0.0172434 c 0.3815757,0.0568543 0.3471863,-0.001468 0.3471863,0.58880171 0,0.5902694 0.034389,0.5319474 -0.3471863,0.5888017 l -0.1157287,0.017243 z"
       id="path878"
       inkscape:connector-curvature="0" />
    <path
       style="fill:#ac7609;stroke-width:0.03557194"
       d="m 8.4706884,12.584405 v -0.328191 l 0.1800225,-0.04106 0.1800226,-0.04106 v 0.143497 c 0,0.07892 -0.015072,0.228778 -0.033493,0.33301 -0.03117,0.176367 -0.043656,0.192026 -0.1800225,0.225754 l -0.1465296,0.03624 z m -3.6401039,0.272072 -0.1168061,-0.02693 0.013936,-5.5927806 c 0.00766,-3.0760296 0.020872,-5.5927825 0.029349,-5.5927844 0.00848,-1.8e-6 0.085942,0.017441 0.1721438,0.038762 0.1229109,0.0304 0.1502584,0.050307 0.1267356,0.092255 -0.016497,0.029419 -0.030311,2.5415933 -0.030698,5.5826095 -3.863e-4,3.0410165 -0.018062,5.5283705 -0.039279,5.5274545 -0.021217,-9.15e-4 -0.091139,-0.01378 -0.1553824,-0.02859 z m 2.5368231,-0.53308 c 0.2243204,-0.101498 1.301966,-0.459374 1.3616203,-0.452182 0.041794,0.005 0.012337,-0.0083 -0.065458,-0.02967 -0.077795,-0.02136 -0.1414463,-0.04472 -0.1414463,-0.05191 0,-0.01243 0.634709,-0.449626 0.8304213,-0.572009 l 0.092326,-0.05773 0.083779,0.08403 0.083779,0.08403 -0.4400116,0.296347 c -0.4098022,0.276001 -0.4816075,0.310932 -1.0458619,0.508779 -0.333217,0.116838 -0.6513358,0.212432 -0.7069304,0.212432 -0.061749,0 -0.082068,-0.0086 -0.052218,-0.02211 z m -0.901112,-0.179629 c 0.00164,-0.03335 1.5512973,-0.585501 1.6432445,-0.585501 0.1265584,0 0.00118,0.05286 -0.729372,0.307515 -0.9208255,0.320978 -0.9159134,0.319484 -0.9138725,0.277986 z m 1.9124528,-0.417905 c -0.034301,-0.01641 -0.062365,-0.03917 -0.062365,-0.05059 0,-0.02856 0.8000803,-0.569321 0.902457,-0.609959 0.069208,-0.02747 0.090247,-0.02706 0.1293755,0.0025 0.0257,0.01943 0.046954,0.04639 0.04723,0.05992 6.018e-4,0.0295 -0.8565389,0.612234 -0.9141379,0.621488 -0.022107,0.0036 -0.068259,-0.007 -0.1025593,-0.02337 z m 0.1027851,-0.683355 0.014872,-0.226597 0.169142,-0.03395 0.1691425,-0.03395 -0.014837,0.209398 C 8.805186,11.164411 8.80308,11.167393 8.6358386,11.217958 l -0.1691779,0.05115 z M 7.9584359,10.678774 c 0.3757368,-0.131924 0.7199275,-0.236349 0.7648689,-0.232055 0.044941,0.0043 0.023847,-0.01141 -0.046876,-0.0349 -0.070723,-0.02348 -0.1369678,-0.04577 -0.14721,-0.04951 -0.01631,-0.006 0.7654305,-0.553028 0.8701177,-0.6089064 0.054726,-0.029211 0.2162271,0.1260647 0.1700107,0.163457 -0.020414,0.016516 -0.2157369,0.1518054 -0.4340523,0.3006424 -0.3666374,0.249957 -0.4439458,0.287044 -1.0127994,0.485874 -0.3418499,0.119485 -0.6673306,0.21526 -0.7315395,0.21526 -0.081144,0 0.088268,-0.07161 0.5674799,-0.239862 z m -1.4860061,0.03656 c 0.023825,-0.05021 1.6267544,-0.612705 1.6639589,-0.583913 0.015858,0.01227 -0.2785555,0.131066 -0.6542522,0.263985 -1.0100699,0.357355 -1.0305456,0.363842 -1.0097067,0.319928 z m 1.9056756,-0.416646 c -0.033947,-0.01624 -0.061722,-0.03953 -0.061722,-0.05177 0,-0.02742 0.8195577,-0.5882651 0.8962277,-0.6133151 0.088232,-0.028827 0.1233334,-0.022153 0.1579651,0.030036 0.023886,0.035996 -0.086162,0.1299376 -0.4178759,0.3567181 -0.2476652,0.169319 -0.4643794,0.307853 -0.481587,0.307853 -0.017207,0 -0.059061,-0.01328 -0.093008,-0.02952 z m 0.092583,-0.7210135 v -0.256851 l 0.1517508,-0.037534 c 0.083463,-0.020643 0.1644732,-0.037534 0.1800225,-0.037534 0.015549,0 0.028272,0.1096119 0.028272,0.243582 V 9.7329184 L 8.6507109,9.7837211 8.4706884,9.8345239 Z M 7.5484274,9.3175303 C 8.3708778,9.0218135 8.6876696,8.9214748 8.731969,8.9426631 8.795112,8.9728641 7.5300487,9.4179628 7.3810677,9.4179628 c -0.087664,0 -0.051342,-0.021797 0.1673597,-0.1004325 z M 6.4647233,9.2151057 c 0,-0.018391 0.2951083,-0.1372794 0.6557963,-0.2641958 C 7.4812075,8.8239933 7.8494575,8.6939415 7.9388525,8.661906 8.0294775,8.62943 8.1148816,8.614102 8.1318855,8.627261 8.1561415,8.646033 7.5209776,8.883758 6.5578047,9.216398 6.4806757,9.243035 6.4647237,9.242814 6.4647237,9.215108 Z M 8.635729,8.89546 C 8.570911,8.880528 8.527664,8.856112 8.539626,8.841202 8.551588,8.826292 8.7545384,8.6833996 8.9906261,8.523663 l 0.4292508,-0.29043 0.094599,0.055877 c 0.05203,0.030732 0.084912,0.073118 0.073072,0.09419 C 9.5592172,8.4337242 8.8300334,8.9264263 8.7869252,8.9242737 8.7685856,8.9233585 8.7005474,8.9103917 8.635729,8.89546 Z M 8.3643522,8.7886345 C 8.3086378,8.7565257 8.3086764,8.7404208 8.364558,8.69638 8.5019301,8.5881447 9.2090338,8.111602 9.2504133,8.09937 9.2739433,8.09241 9.3190383,8.113851 9.3506225,8.147007 9.4028055,8.201787 9.3664285,8.235572 8.9522204,8.5170177 8.7015138,8.6873678 8.4818653,8.8269223 8.464112,8.8271393 8.4463592,8.8273607 8.40146,8.8100291 8.3643368,8.7886345 Z M 8.4706884,8.0554652 c 0,-0.2221628 0.011727,-0.257056 0.090011,-0.2678222 0.049506,-0.00681 0.1305163,-0.020354 0.1800225,-0.030102 0.082223,-0.01619 0.090011,0.00374 0.090011,0.2302886 V 8.235842 L 8.6789821,8.273376 c -0.083463,0.020643 -0.1644732,0.037533 -0.1800225,0.037533 -0.015549,0 -0.028272,-0.1149496 -0.028271,-0.2554438 z M 7.8303226,7.8465651 C 7.8571974,7.834728 8.1033216,7.7461637 8.3772655,7.6497555 8.8264803,7.4916645 9.0390524,7.4409806 9.0350523,7.4929186 9.032352,7.5279837 7.9911069,7.868087 7.8864542,7.868087 c -0.062928,0 -0.085418,-0.00862 -0.056132,-0.021522 z M 6.8080694,7.7020289 C 6.795546,7.6918809 7.1413662,7.5592351 7.5765588,7.4072604 8.0117519,7.255286 8.3678184,7.145835 8.3678184,7.1640362 c 0,0.026913 -1.4421372,0.5564436 -1.5154331,0.5564436 -0.01185,0 -0.031792,-0.0083 -0.044316,-0.018451 z M 8.4706884,4.2693505 V 1.7010828 l 0.1352345,-0.029471 c 0.074379,-0.016209 0.1409972,-0.026289 0.1480407,-0.0224 0.024942,0.013772 0.050868,2.6325897 0.038194,3.8580056 l -0.012859,1.2432068 -0.1543051,0.043597 -0.154305,0.043597 z M 3.3529055,5.9061974 C 3.1548807,5.7228018 2.8813725,5.4899175 2.7451094,5.3886766 2.6088464,5.2874358 2.5162634,5.1970702 2.5393694,5.1878644 2.5624755,5.1786586 2.7086821,5.1220131 2.864273,5.0619855 3.0198639,5.001958 3.1555057,4.9436448 3.1656993,4.9324006 3.1758929,4.9211566 3.3095079,5.011905 3.4626214,5.1340635 l 0.2783882,0.2221068 -0.014029,0.4417368 -0.01403,0.4417367 z m 8.1010135,-0.025428 c 0,-0.034973 0.613786,-0.3104374 0.65151,-0.2923944 0.02034,0.00973 -0.09985,0.083821 -0.267079,0.1646515 -0.288333,0.1393631 -0.384431,0.1712957 -0.384431,0.1277429 z m -0.20574,-0.092965 c 0,-0.032047 0.606523,-0.3193512 0.640185,-0.3032502 0.01411,0.00675 -0.124157,0.08329 -0.307264,0.170091 -0.183107,0.086801 -0.332921,0.1467226 -0.332921,0.1331592 z M 1.7327029,4.6999121 c 0,-0.034973 0.6137865,-0.3104374 0.65151,-0.2923944 0.020339,0.00973 -0.099846,0.083821 -0.2670785,0.1646514 C 1.8288011,4.7115322 1.7327029,4.7434648 1.7327029,4.6999121 Z M 5.2174244,1.5113318 C 5.1372613,1.4822263 5.1274132,1.427566 5.1274132,1.0117384 V 0.54482626 L 5.2560007,0.51680362 5.3845882,0.48878098 V 1.0171794 c 0,0.2906191 -0.017359,0.5280464 -0.038576,0.5276161 C 5.324795,1.5443652 5.2669306,1.5293065 5.2174244,1.5113318 Z M 8.1106434,1.016652 c 0,-0.29090923 0.013094,-0.52892587 0.029099,-0.52892587 0.016005,0 0.073869,0.01146 0.1285876,0.0254668 0.093121,0.0238368 0.099489,0.0560603 0.099489,0.50345907 0,0.4473987 -0.00637,0.4796223 -0.099489,0.5034591 -0.054719,0.014007 -0.112583,0.025467 -0.1285876,0.025467 -0.016005,0 -0.029099,-0.2380167 -0.029099,-0.5289261 z"
       id="path876"
       inkscape:connector-curvature="0" />
    <path
       style="fill:#976809;stroke-width:0.03557194"
       d="m 8.8063898,12.52613 c 0.017928,-0.173762 0.041121,-0.32919 0.051541,-0.345396 0.01042,-0.01621 0.089573,-0.04693 0.1758964,-0.06828 l 0.1569514,-0.03882 v 0.318772 0.318772 l -0.1414463,0.04684 C 8.7575559,12.854647 8.7711568,12.867629 8.8063898,12.52613 Z M 4.4587581,12.760138 4.3301706,12.708984 4.3153326,7.127281 c -0.00942,-3.5442692 0.00314,-5.5817031 0.034408,-5.5817031 0.027085,0 0.1168363,0.018554 0.1994468,0.041231 l 0.1502009,0.041231 0.033046,1.2564827 C 4.7832228,4.8155975 4.7112829,12.81311 4.643133,12.81211 4.61245,12.81166 4.5294812,12.788273 4.4587581,12.760138 Z M 7.7383178,12.30683 c -0.054719,-0.02617 0.00601,-0.05933 0.08284,-0.04523 0.036996,0.0068 0.099905,-0.0075 0.1397993,-0.03183 0.067702,-0.04123 0.065682,-0.04171 -0.030336,-0.0073 -0.09456,0.03392 -0.097372,0.03354 -0.034816,-0.0047 0.03743,-0.02288 0.097373,-0.03621 0.1332059,-0.02963 0.035833,0.0066 0.097792,-0.0079 0.1376859,-0.03221 0.067702,-0.04123 0.065682,-0.04171 -0.030336,-0.0073 -0.09456,0.03392 -0.097372,0.03354 -0.034816,-0.0047 0.03743,-0.02287 0.09874,-0.03596 0.1362436,-0.02907 0.037504,0.0069 0.08568,-10e-4 0.1070568,-0.01756 0.026966,-0.02087 0.016747,-0.02394 -0.033374,-0.01003 -0.042768,0.01187 -0.054754,0.01091 -0.029379,-0.0023 0.023575,-0.01232 0.06408,-0.02378 0.090011,-0.02547 0.025932,-0.0017 0.070295,-0.0045 0.098584,-0.0062 0.028289,-0.0017 0.045649,-0.01544 0.038576,-0.03056 -0.00707,-0.01512 0.027646,-0.03074 0.077153,-0.03472 0.049506,-0.004 0.090011,-0.0019 0.090011,0.0046 0,0.03113 -0.3278482,0.234639 -0.4273523,0.265276 -0.136364,0.04199 -0.4603423,0.07299 -0.5107583,0.04887 z m 0.9184743,-0.244499 c 0.1604788,-0.109801 0.3614754,-0.204234 0.6391663,-0.300295 0.2227903,-0.07707 0.3950353,-0.144926 0.3827675,-0.150794 -0.012268,-0.0059 -0.1519914,0.03616 -0.3104966,0.0934 -0.1585052,0.05724 -0.3008665,0.09801 -0.3163588,0.0906 -0.015492,-0.0074 -0.070816,0.01097 -0.1229409,0.04083 -0.052126,0.02987 -0.095544,0.04638 -0.096485,0.0367 -0.00239,-0.0246 0.7115225,-0.506387 0.7806491,-0.526821 0.072745,-0.0215 0.038951,0.0052 -0.3074867,0.243065 -0.1527331,0.104863 -0.2661242,0.190659 -0.2519795,0.190659 0.014145,0 0.1591928,-0.09111 0.3223287,-0.202461 l 0.2966113,-0.202461 0.041795,0.0733 c 0.09118,0.159921 -0.045053,0.352483 -0.3620876,0.511801 -0.1795585,0.09023 -0.751937,0.262638 -0.8719483,0.262638 -0.031695,0 0.047714,-0.07208 0.1764653,-0.160169 z m -2.2420883,0.04476 c 0.00192,-0.027 1.6558722,-0.600794 1.6877805,-0.585533 0.013917,0.0067 0.01566,0.01591 0.00387,0.02056 -0.064915,0.02562 -1.5748457,0.550476 -1.6287753,0.566167 -0.035362,0.01029 -0.063656,0.0098 -0.062878,-0.0012 z m -0.00142,-0.12788 c 0,-0.06689 0.058092,-0.09559 0.5272088,-0.260473 0.2899648,-0.101913 0.6718697,-0.217989 0.8486775,-0.257946 0.2823257,-0.0638 0.3214688,-0.06741 0.3214688,-0.02966 0,0.0271 -0.2980165,0.147175 -0.8064469,0.324921 -0.4435451,0.155063 -0.82545,0.285622 -0.8486775,0.290132 -0.023227,0.0045 -0.042231,-0.02563 -0.042231,-0.06698 z M 3.879544,11.798129 c -0.012101,-0.01691 0.029199,-0.06396 0.091777,-0.104555 0.172111,-0.111641 0.2966827,-0.20911 0.2672569,-0.20911 -0.014449,0 -0.1004766,0.05531 -0.1911721,0.122911 -0.182075,0.135711 -0.2573029,0.139013 -0.2573029,0.01129 0,-0.07117 0.032213,-0.0945 0.2067856,-0.149756 0.1137321,-0.036 0.1953722,-0.07091 0.1814225,-0.07758 -0.01395,-0.0067 -0.1070032,0.01765 -0.2067856,0.05405 -0.2152771,0.07854 -0.2409029,0.04368 -0.079287,-0.107837 0.1425532,-0.13365 0.1838051,-0.137443 0.277441,-0.02551 0.1660726,0.19852 0.1628289,0.279368 -0.016202,0.403827 -0.1665268,0.115766 -0.2352089,0.136393 -0.2739334,0.08227 z m 4.3562876,-0.176078 c -0.026304,-0.05013 0.00794,-0.09316 0.15382,-0.19329 0.2706113,-0.185745 0.2901736,-0.195714 0.5310931,-0.270635 0.1202293,-0.03739 0.2185988,-0.07411 0.2185988,-0.08161 0,-0.0075 -0.069437,0.01002 -0.154305,0.03893 l -0.154305,0.05255 v -0.219138 c 0,-0.237045 -0.021346,-0.217529 0.3241794,-0.296381 0.022708,-0.0052 0.03625,0.08856 0.030095,0.208321 l -0.011192,0.217743 -0.452073,0.303996 c -0.4172698,0.280594 -0.454679,0.299034 -0.4859113,0.239514 z M 7.7357069,10.878712 c -0.053906,-0.02578 0.064048,-0.08196 0.1420367,-0.06764 0.037504,0.0069 0.08568,-10e-4 0.1070569,-0.01756 0.026492,-0.0205 0.017429,-0.02374 -0.028462,-0.01018 -0.044886,0.01327 -0.054923,0.0103 -0.030111,-0.0089 0.02047,-0.01584 0.055355,-0.02344 0.077522,-0.01689 0.022167,0.0066 0.084218,-0.0052 0.1378922,-0.02602 0.053674,-0.02087 0.06508,-0.02987 0.025348,-0.02001 -0.047907,0.01189 -0.059704,0.0082 -0.035022,-0.01088 0.02047,-0.01584 0.055355,-0.02344 0.077522,-0.01689 0.022167,0.0066 0.084218,-0.0052 0.1378921,-0.02602 0.053674,-0.02087 0.06508,-0.02987 0.025348,-0.02001 -0.046333,0.0115 -0.059577,0.0081 -0.036929,-0.0094 0.019421,-0.01503 0.073086,-0.02039 0.1192546,-0.01192 0.051968,0.0095 0.071148,0.0055 0.050354,-0.01059 -0.018474,-0.0143 -0.00119,-0.03886 0.038418,-0.05458 0.050295,-0.01997 0.082243,-0.02066 0.105954,-0.0023 0.04515,0.03494 -0.318826,0.269951 -0.4565,0.294749 -0.1950148,0.03513 -0.4212054,0.05246 -0.4575751,0.03506 z m 0.9014396,-0.234098 c 0.197694,-0.133264 0.7104028,-0.353234 1.0257776,-0.440096 0.076506,-0.02107 0.08112,-0.01501 0.040356,0.05297 -0.097793,0.163092 -0.3605255,0.308641 -0.769677,0.426388 -0.1555909,0.04478 -0.3381816,0.08947 -0.4057564,0.09933 -0.1104577,0.0161 -0.099421,0.0021 0.1092994,-0.138584 z m -2.2131268,-0.07655 -0.00849,-0.104555 0.537987,-0.183862 c 0.4804081,-0.164184 1.0126426,-0.3161158 1.1185508,-0.3193021 0.021217,-6.396e-4 0.037827,0.018213 0.036911,0.041891 -0.00104,0.02683 -0.3084712,0.149645 -0.8159752,0.325966 -0.4478709,0.155603 -0.8070122,0.286986 -0.7980923,0.291962 0.00892,0.005 0.3665407,-0.114918 0.7947135,-0.266432 0.4281722,-0.151514 0.7903595,-0.269805 0.8048606,-0.262869 0.032309,0.01545 -1.5523187,0.581756 -1.627868,0.581756 -0.018758,0 -0.037927,-0.04705 -0.042597,-0.104555 z m 2.408425,-0.12457 c -9.413e-4,-0.011 0.1640751,-0.132779 0.3667023,-0.270608 0.4402455,-0.2994593 0.3977741,-0.2736524 0.4271991,-0.2595788 0.013248,0.00634 -0.097787,0.093979 -0.2467435,0.1947598 -0.3147545,0.212956 -0.3572064,0.244741 -0.326871,0.244741 0.012281,0 0.1417178,-0.0826 0.2876384,-0.183562 0.1459206,-0.10096 0.285148,-0.1894274 0.3093944,-0.1965948 0.039929,-0.011803 0.13536,0.1551438 0.097257,0.1701408 -0.2002293,0.07881 -0.6802593,0.232704 -0.6985521,0.223954 -0.013622,-0.0065 -0.067414,0.01259 -0.1195396,0.04246 -0.052126,0.02987 -0.095544,0.0453 -0.096485,0.03429 z m -4.9270003,-0.06996 c -0.046042,-0.02202 -0.02016,-0.05542 0.1097649,-0.141627 0.1951203,-0.129469 0.2525355,-0.174313 0.2231768,-0.174313 -0.011387,0 -0.098578,0.05458 -0.1937574,0.121295 -0.09518,0.06671 -0.1913852,0.115877 -0.2137899,0.109254 -0.022405,-0.0066 -0.040736,-0.04918 -0.040736,-0.09457 0,-0.06858 0.036937,-0.09556 0.2185988,-0.159702 l 0.2185988,-0.077179 0.046275,0.100538 c 0.049501,0.107547 0.018261,0.152408 -0.1930969,0.277294 -0.087719,0.05183 -0.1289922,0.06103 -0.1750341,0.03901 z m 4.3296172,-0.17982 C 8.2071098,10.140446 8.2456562,10.096705 8.4354858,9.9662793 8.5647533,9.877464 8.7702171,9.7731591 8.8920718,9.7344912 9.0139264,9.695823 9.0860599,9.6641381 9.0523679,9.6640801 9.0186759,9.6640309 8.9768048,9.6750453 8.959321,9.688576 8.8703076,9.7574638 8.8307926,9.6909844 8.8313702,9.4733155 L 8.832008,9.2334537 9.0113938,9.1778749 9.1907795,9.1222959 V 9.364434 c 0,0.1331759 -0.017359,0.250441 -0.038576,0.260589 -0.021217,0.010148 -0.038576,0.026757 -0.038576,0.03691 0,0.010153 -0.1898903,0.1487957 -0.4219779,0.3080961 C 8.2979908,10.240228 8.2673484,10.25524 8.2350616,10.193714 Z M 3.790103,10.032013 c 0,-0.034869 0.1935332,-0.2139188 0.2489188,-0.2302909 0.024557,-0.00726 0.073251,0.016827 0.1082104,0.053525 0.05892,0.061852 0.051161,0.071675 -0.1062646,0.1345353 C 3.8606836,10.061769 3.790103,10.07365 3.790103,10.032013 Z M 7.5896757,9.3886735 c 0.038339,-0.024316 0.1013969,-0.03546 0.1518243,-0.026832 0.047438,0.00812 0.069092,0.00571 0.048121,-0.00535 -0.050987,-0.026887 0.055334,-0.085871 0.1319014,-0.073176 0.033293,0.00552 0.1299706,-0.018494 0.2148384,-0.053365 0.084868,-0.034871 0.1217966,-0.054941 0.082064,-0.0446 -0.046809,0.012182 -0.05981,0.00918 -0.036929,-0.00853 0.019421,-0.01503 0.065581,-0.021772 0.1025764,-0.014982 0.036996,0.00679 0.099905,-0.00753 0.1397993,-0.031826 0.067702,-0.041229 0.065682,-0.041714 -0.030336,-0.00727 -0.09456,0.033921 -0.097372,0.033542 -0.034816,-0.00469 0.038925,-0.023788 0.1030798,-0.035161 0.1498842,-0.026571 0.050227,0.00922 0.068858,0.00498 0.048241,-0.010975 -0.018474,-0.014297 -0.00119,-0.038857 0.038418,-0.054578 0.1587454,-0.063014 0.1111762,0.01931 -0.090672,0.1569186 -0.1888194,0.1287262 -0.2441069,0.149592 -0.4711004,0.177797 -0.1414463,0.017575 -0.283287,0.027455 -0.3152009,0.021954 -0.031914,-0.0055 -0.088663,0.00297 -0.1261073,0.018828 -0.056143,0.023774 -0.056583,0.021537 -0.0025,-0.012761 z M 8.646734,9.1338703 C 8.8991796,8.9611447 8.9336549,8.9247613 8.7941668,8.9782792 8.6931392,9.0170406 8.7149332,9.0007227 9.2667778,8.6244197 9.4603674,8.4924111 9.6291493,8.3893734 9.641848,8.3954475 c 0.012699,0.00607 -0.1105996,0.1017791 -0.2739973,0.2126781 -0.1633982,0.110899 -0.297087,0.2162173 -0.297087,0.2340406 0,0.017823 -0.022864,0.025647 -0.05081,0.017386 -0.030561,-0.00903 -0.034226,-0.00218 -0.0092,0.017184 0.026052,0.020162 0.021422,0.026235 -0.012381,0.016243 -0.029696,-0.00878 -0.067264,5.806e-4 -0.083485,0.0208 -0.047523,0.059234 0.013671,0.044537 0.4127561,-0.099131 0.3500996,-0.1260342 0.3774825,-0.1316939 0.3774825,-0.078022 0,0.082535 -0.2898779,0.2808304 -0.5361158,0.3667385 -0.201636,0.070347 -0.6612633,0.1915917 -0.7263085,0.1915917 -0.017272,0 0.074541,-0.072489 0.2040298,-0.1610864 z M 6.4231334,9.0682468 6.4135722,8.9628405 6.918002,8.7871968 C 7.4179893,8.6131 8.0447716,8.4434105 8.0964849,8.4681448 8.1660934,8.5014381 8.0129004,8.5686867 7.3052252,8.8154916 6.8853829,8.9619135 6.51873,9.0929769 6.4904408,9.1067438 6.3837399,9.1586693 6.7700353,9.0317741 7.4286651,8.7985436 7.8037534,8.6657197 8.1106434,8.566923 8.1106434,8.5789958 c 0,0.021212 -1.4990429,0.5618209 -1.6188165,0.583804 -0.038074,0.00699 -0.062537,-0.026685 -0.068694,-0.094553 z M 3.9109217,8.8636234 c -0.017275,-0.021532 0.049849,-0.09542 0.1564446,-0.1722085 0.1026864,-0.073972 0.1755082,-0.1344942 0.1618262,-0.1344942 -0.013682,0 -0.1027448,0.055304 -0.1979172,0.1228987 -0.1869198,0.132756 -0.2411723,0.1350899 -0.2411723,0.010375 0,-0.063506 0.041167,-0.095532 0.200283,-0.1558075 0.1101557,-0.041729 0.2122771,-0.075871 0.2269365,-0.075871 0.014659,0 0.042374,0.044505 0.061588,0.098901 0.030053,0.08508 0.011966,0.116021 -0.1294284,0.2214108 -0.1808485,0.1347974 -0.1945401,0.139664 -0.2385604,0.084796 z m 5.249685,-0.074146 C 9.4035039,8.6098113 9.6308518,8.4603048 9.6624653,8.4594492 c 0.018969,-5.142e-4 0.050791,0.034566 0.070715,0.077954 0.032376,0.070503 0.015652,0.087149 -0.1573531,0.1566194 C 9.4693587,8.7367754 9.31028,8.7920887 9.222319,8.8169409 L 9.0623895,8.8621269 Z M 8.2376174,8.6774953 C 8.1880773,8.6028393 8.5889005,8.3286331 8.8821685,8.236553 9.0094701,8.1965829 9.0860599,8.1637499 9.0523679,8.1635907 9.0186759,8.1634431 8.9768048,8.174372 8.959321,8.1879026 8.8703076,8.2567904 8.8307926,8.1903111 8.8313702,7.9726421 L 8.832008,7.7327804 9.0113938,7.6772016 9.1907795,7.6216225 v 0.2421381 c 0,0.1331759 -0.017359,0.250441 -0.038576,0.260589 -0.021217,0.010148 -0.039011,0.025831 -0.039543,0.034852 -0.00114,0.019395 -0.7955478,0.569928 -0.8223912,0.569928 -0.010114,0 -0.033807,-0.023235 -0.052652,-0.051634 z M 3.814254,8.4892673 c 0.019417,-0.037209 0.084427,-0.10576 0.1444673,-0.1523348 l 0.1091644,-0.084682 0.071301,0.083577 c 0.069642,0.081633 0.067309,0.085161 -0.1003151,0.151673 -0.217357,0.086245 -0.2689122,0.086651 -0.2246176,0.00177 z M 8.2910548,7.7945845 C 8.2535175,7.7655342 8.7218116,7.60782 8.8166572,7.61757 c 0.041709,0.00429 0.062194,-0.00276 0.045522,-0.015663 -0.016672,-0.012903 0.00229,-0.036402 0.042144,-0.052221 0.056133,-0.022282 0.070164,-0.021524 0.062281,0.00336 -0.0056,0.017669 -0.029202,0.046699 -0.052456,0.064513 -0.089729,0.068736 0.014097,0.05261 0.1202169,-0.018671 0.061591,-0.041371 0.1520702,-0.07522 0.2010641,-0.07522 0.048994,0 0.121526,-0.013838 0.1611808,-0.030752 C 9.456692,7.46729 9.458794,7.468513 9.40922,7.500246 9.331778,7.549822 8.8821691,7.7042631 8.8821691,7.6812887 c 0,-0.0097 -0.040505,-4.231e-4 -0.090011,0.020623 -0.1295785,0.05509 -0.4686448,0.1177923 -0.5011033,0.092673 z M 8.6507109,7.6828298 c 0.1167909,-0.048958 0.094907,-0.045249 -0.090011,0.015255 -0.134374,0.043966 -0.2443163,0.083987 -0.2443163,0.088934 0,0.016704 0.1790237,-0.039087 0.3343273,-0.104189 z M 6.7799242,7.5410799 6.7689114,7.4108825 7.3754834,7.2009105 C 7.7090986,7.085426 8.0688525,6.9672596 8.1749372,6.9383185 l 0.1928812,-0.05262 -0.0015,0.091425 C 8.3648609,7.0656422 8.344021,7.0758006 7.7105202,7.2967516 7.0286695,7.534566 6.7448368,7.640055 6.8762028,7.606833 6.9186367,7.5961017 7.2593066,7.4789004 7.6332468,7.3463855 8.2794485,7.1173884 8.4105038,7.0771133 8.3453269,7.1275539 c -0.02853,0.02208 -1.5026345,0.5437235 -1.5364988,0.5437235 -0.00984,0 -0.022847,-0.058589 -0.028904,-0.1301975 z M 3.7995454,7.1854036 c 0.011901,-0.049471 0.04884,-0.069858 0.1374463,-0.075856 l 0.1211712,-0.0082 -0.093685,0.075856 c -0.1161044,0.094009 -0.1864163,0.097506 -0.1649325,0.0082 z m 4.6569727,0.00347 c -0.02873,-0.013742 0.2079028,-0.2064328 0.2535082,-0.2064328 0.016283,0 -0.1745287,0.1943241 -0.2113701,0.2152605 -0.00595,0.00338 -0.024915,-5.904e-4 -0.042138,-0.00883 z m 0.3342781,-2.9977903 0.00643,-2.5453454 0.1839193,-0.062591 0.1839187,-0.062591 0.014256,2.5402834 0.014256,2.5402833 -0.166618,0.067653 c -0.09164,0.037209 -0.1837104,0.067653 -0.2046012,0.067653 -0.020891,0 -0.035092,-1.1454054 -0.031557,-2.5453454 z m 2.7145578,1.7442661 c 0,-0.013531 0.138874,-0.090331 0.30861,-0.1706682 0.169735,-0.080337 0.30861,-0.1349964 0.30861,-0.1214657 0,0.013531 -0.138875,0.090331 -0.30861,0.1706681 -0.169736,0.080337 -0.30861,0.1349964 -0.30861,0.1214658 z m -0.05283,-0.3176028 c 0.181479,-0.087579 0.341507,-0.153713 0.355618,-0.1469636 0.03366,0.016101 -0.567019,0.3061988 -0.634021,0.3061988 -0.02836,0 0.09692,-0.071656 0.278403,-0.1592352 z M 1.9127254,4.5469246 C 2.0806898,4.4657406 2.241261,4.3993174 2.2695502,4.3993174 c 0.028289,0 -0.08599,0.066423 -0.2539548,0.1476072 -0.1679644,0.081184 -0.3285356,0.1476072 -0.3568248,0.1476072 -0.028289,0 0.08599,-0.066423 0.2539548,-0.1476072 z M 6.3344759,1.81548 C 5.7142979,1.7910496 5.2887903,1.7373234 4.7930856,1.6208582 3.7387512,1.3731437 3.4808315,0.96244838 4.1681407,0.62573462 4.6833217,0.37334665 5.4215448,0.2463255 6.5021093,0.22414414 7.7431238,0.19866913 8.6897481,0.32502204 9.2849154,0.59558567 10.207831,1.0151442 9.6282594,1.5403176 8.0077734,1.752857 7.7597764,1.7853837 6.8997965,1.8468295 6.8261174,1.8372866 6.8112311,1.8353583 6.5899922,1.8255455 6.3344759,1.81548 Z M 7.8848911,1.6086331 C 8.8024278,1.4699988 9.3020797,1.1950087 9.1446223,0.9153233 8.9466392,0.56365373 7.7133178,0.30299644 6.4798714,0.35213928 5.5209173,0.39034586 4.7723054,0.55810901 4.4738623,0.80168385 4.0327468,1.1617011 4.7322695,1.538688 6.0789607,1.6667037 6.517815,1.7084209 7.4154988,1.6795554 7.8848911,1.6086331 Z M 8.3678184,1.0304045 c 0,-0.25788112 0.010484,-0.46887476 0.023297,-0.46887476 0.012814,0 0.082251,0.0128475 0.154305,0.0285501 l 0.1310075,0.0285501 V 1.0044874 c 0,0.3369976 -0.011398,0.3905392 -0.090011,0.4228302 C 8.3654848,1.5180671 8.3678184,1.5223045 8.3678184,1.0304045 Z M 4.9331177,1.4334775 C 4.8234105,1.3967242 4.8188031,1.3799244 4.8188031,1.016652 c 0,-0.36327244 0.00461,-0.38007221 0.1143146,-0.41682547 0.062873,-0.0210632 0.1323104,-0.0382968 0.154305,-0.0382968 0.021995,0 0.039991,0.20480501 0.039991,0.45512227 0,0.2503172 -0.017996,0.4551222 -0.039991,0.4551222 -0.021995,0 -0.091432,-0.017234 -0.154305,-0.038297 z"
       id="path874"
       inkscape:connector-curvature="0" />
    <path
       style="fill:#704e09;stroke-width:0.03557194"
       d="M 6.2656888,13.379523 C 5.9476572,13.355675 5.9174115,13.343489 5.688835,13.147109 l -0.1694053,-0.145544 0.1254605,0.01635 c 0.3660472,0.04769 1.1177636,0.06801 1.5871924,0.0429 0.2710388,-0.0145 0.5467767,-0.03345 0.6127509,-0.04211 0.1169596,-0.01537 0.115417,-0.01145 -0.06182,0.156884 -0.1268886,0.120516 -0.2174615,0.176924 -0.2999751,0.186825 -0.2293245,0.02752 -0.9445467,0.03757 -1.2173498,0.01711 z M 5.2945769,13.099231 5.0759781,12.918714 V 8.2653964 c 0,-2.8697955 0.018431,-4.6533175 0.048087,-4.6533175 0.026448,0 0.1074578,0.010796 0.1800225,0.023992 l 0.131936,0.023992 v 4.6643064 4.6643057 l 0.1340587,0.109413 c 0.1087203,0.08873 0.1221125,0.116297 0.070855,0.145837 -0.034762,0.02003 -0.077729,0.03629 -0.095482,0.03612 -0.017753,-1.72e-4 -0.1306478,-0.08153 -0.2508771,-0.180819 z M 4.1594911,12.63303 3.9958431,12.552274 v -0.322003 -0.322002 l 0.1519879,-0.01067 0.1519878,-0.01067 0.015176,0.407646 c 0.00835,0.224206 0.013594,0.410249 0.01166,0.413429 -0.00193,0.0032 -0.077157,-0.03056 -0.1671637,-0.07498 z m 5.0312874,-0.25786 c 0,-0.256117 0.015476,-0.324997 0.078653,-0.350075 0.070044,-0.0278 0.077082,0.006 0.064294,0.308636 -0.01035,0.244976 -0.032309,0.342711 -0.078653,0.350075 -0.049227,0.0078 -0.064294,-0.06451 -0.064294,-0.308636 z M 9.397306,12.2916 c -4.629e-4,-0.19843 0.020345,-0.343061 0.050648,-0.352019 0.067878,-0.02007 0.067878,0.601695 0,0.651932 C 9.414417,12.616333 9.397836,12.518153 9.397306,12.2916 Z M 3.982864,11.86367 c -0.016568,-0.0079 0.043225,-0.06428 0.1328738,-0.125246 0.1909633,-0.129854 0.2637037,-0.08409 0.085522,0.0538 -0.1087476,0.08416 -0.1580758,0.100297 -0.2183961,0.07145 z m 2.4905739,-0.035 c 0.025712,-0.03689 0.641502,-0.245807 0.7245356,-0.245807 0.029187,0 -0.04863,0.03657 -0.1729276,0.08126 -0.4303623,0.154747 -0.5748072,0.197835 -0.551608,0.164547 z m 1.6886405,-0.309911 c 0,-0.06483 0.225954,-0.209611 0.3921076,-0.25125 0.1167662,-0.02926 0.1071026,-0.01689 -0.086265,0.110448 -0.2917049,0.192096 -0.3058423,0.198605 -0.3058426,0.140802 z M 4.13424,11.217368 C 3.9978632,11.058306 3.9906383,11.031354 4.0056525,10.73768 c 0.00875,-0.171137 -0.00289,-0.311137 -0.025864,-0.311113 -0.022975,2.5e-5 0.03489,-0.05108 0.1285876,-0.113574 0.1264375,-0.08432 0.1749617,-0.102572 0.1882094,-0.07077 0.00982,0.02356 -0.026386,0.07192 -0.080452,0.107468 -0.1922513,0.126388 -0.1953848,0.134289 -0.047913,0.120805 l 0.1362321,-0.01246 v 0.464012 c 0,0.255206 -0.00579,0.463975 -0.012859,0.463931 -0.00707,-4.9e-5 -0.077882,-0.07592 -0.1573536,-0.168611 z m 5.0565385,-0.378811 c 0,-0.155864 0.019646,-0.216909 0.077153,-0.239737 0.067551,-0.02681 0.077152,-0.0046 0.077152,0.178485 0,0.155864 -0.019646,0.216908 -0.077152,0.239736 -0.067551,0.02681 -0.077153,0.0046 -0.077153,-0.178484 z m 0.20574,-0.101526 c 0,-0.115011 0.023146,-0.215952 0.051435,-0.224315 0.032749,-0.0097 0.051435,0.06076 0.051435,0.193906 0,0.115011 -0.023146,0.215952 -0.051435,0.224315 -0.032749,0.0097 -0.051435,-0.06076 -0.051435,-0.193906 z M 6.4647233,10.405635 c 0,-0.02674 0.4171024,-0.177421 0.61722,-0.222969 0.1146507,-0.0261 0.1118634,-0.02246 -0.025717,0.03351 -0.2816658,0.114592 -0.5915025,0.213833 -0.5915025,0.189461 z m 1.6973551,-0.309466 c 0,-0.06352 0.1838225,-0.198256 0.3352333,-0.2457068 0.173194,-0.054278 0.1609962,-0.030839 -0.061269,0.1177315 C 8.1776689,10.1409 8.1620784,10.148183 8.1620784,10.096169 Z M 4.1293654,9.7833868 C 3.9994526,9.6401114 3.9925961,9.6125588 3.9985577,9.2577459 c 0.00622,-0.3700399 0.00805,-0.3757071 0.1558733,-0.48228 0.1272733,-0.091757 0.1496145,-0.099234 0.1498019,-0.050135 1.234e-4,0.031738 -0.042276,0.087091 -0.094216,0.123006 -0.1867603,0.1291411 -0.188748,0.1349182 -0.041796,0.121482 l 0.1362321,-0.012456 v 0.4886126 c 0,0.2687369 -0.00855,0.4886126 -0.018994,0.4886126 -0.010447,0 -0.080689,-0.068041 -0.1560937,-0.1512013 z M 9.1907785,9.3747849 c 0,-0.1886651 0.017985,-0.253151 0.077153,-0.2766378 0.067705,-0.026876 0.077152,-5.018e-4 0.077152,0.2153863 0,0.1886651 -0.017985,0.253151 -0.077152,0.2766378 -0.067705,0.026876 -0.077153,5.018e-4 -0.077153,-0.2153863 z M 9.397306,9.2779578 C 9.3968631,9.1369238 9.419019,9.020596 9.447954,9.0120429 c 0.067713,-0.020016 0.067713,0.4296084 0,0.4797235 -0.034,0.025163 -0.050111,-0.042851 -0.050648,-0.2138086 z M 6.4647233,8.9027245 c 0,-0.030215 0.6009892,-0.247399 0.6846004,-0.247399 0.068607,0 0.049081,0.00846 -0.3631317,0.157365 -0.1768078,0.063868 -0.3214687,0.1043834 -0.3214687,0.090034 z M 8.1620784,8.5782349 c 0,-0.062783 0.3821554,-0.2895525 0.4407383,-0.2615324 0.016085,0.00769 -0.057454,0.073192 -0.1634198,0.1455537 C 8.1724513,8.6445472 8.1620784,8.6488854 8.1620784,8.5782349 Z M 4.1372829,8.2817141 C 4.0035124,8.1348346 3.9958307,8.1061882 3.9958367,7.7542434 3.9958418,7.4534531 4.010638,7.3762147 4.0729956,7.3514617 4.1792919,7.3092672 4.1790637,6.9088531 4.0726561,6.759265 4.0051887,6.6644175 3.996873,6.3088888 4.0083623,4.0104806 l 0.013198,-2.6398471 0.154305,0.081322 0.154305,0.081322 -0.025717,3.4518758 -0.025717,3.4518759 z M 9.1907785,7.8453456 c 0,-0.1929571 0.01579,-0.2455057 0.077153,-0.2567684 0.065366,-0.011997 0.077152,0.022903 0.077152,0.2284475 0,0.1929571 -0.015789,0.2455058 -0.077152,0.2567684 -0.065366,0.011997 -0.077153,-0.022903 -0.077153,-0.2284475 z m 0.20574,-0.08506 c 0,-0.1292704 0.022985,-0.2405057 0.051435,-0.2489157 0.032911,-0.00973 0.051435,0.068964 0.051435,0.2185072 0,0.1292704 -0.022985,0.2405058 -0.051435,0.2489157 -0.032911,0.00973 -0.051435,-0.068964 -0.051435,-0.2185072 z M 6.7733333,7.3661725 c 0,-0.038366 0.7751919,-0.3099252 0.8847104,-0.3099252 0.027515,0 -0.1313563,0.064185 -0.3530479,0.1426326 C 6.8466287,7.3610783 6.7733333,7.3841412 6.7733333,7.3661725 Z m -2.9039417,-0.06226 c -0.036329,-0.028115 0.1220877,-0.1738616 0.1889763,-0.1738616 0.02219,0 0.040345,0.025961 0.040345,0.05769 0,0.067065 -0.1769468,0.1567042 -0.2293213,0.1161716 z M 8.4191346,7.1165202 C 8.4189803,7.0497823 8.8425023,6.7597113 9.0443075,6.6883488 9.1881337,6.6374891 9.1626564,6.6629407 8.8589024,6.8735686 8.4295106,7.1713162 8.4192843,7.1769656 8.4191346,7.1165202 Z M 9.2033981,4.0539066 c 0.010344,-2.0262432 0.026617,-2.5678885 0.077392,-2.5759829 0.051159,-0.00816 0.064294,0.5097372 0.064294,2.5350126 0,2.2359357 -0.00941,2.5489958 -0.077392,2.5759831 C 9.1988636,6.6162407 9.1917496,6.335757 9.2033981,4.0539066 Z M 9.397306,3.964098 C 9.3978013,2.3736674 9.416601,1.4211753 9.447954,1.3979706 9.480322,1.3740146 9.49809,2.2559868 9.498602,3.9119917 9.4991215,5.5864787 9.481717,6.4681386 9.447954,6.478119 9.413789,6.488218 9.396783,5.644079 9.397306,3.964098 Z m 2.416658,1.8497885 c 0.333305,-0.1608488 0.360045,-0.1716755 0.360045,-0.1457808 0,0.026499 -0.581254,0.3056887 -0.636423,0.3056887 -0.03024,0 0.09413,-0.071959 0.276378,-0.1599079 z M 11.376766,5.6047763 c 0.167965,-0.081184 0.328536,-0.1476072 0.356825,-0.1476072 0.02829,0 -0.08599,0.066423 -0.253955,0.1476072 -0.167964,0.081184 -0.328535,0.1476072 -0.356825,0.1476072 -0.02829,0 0.08599,-0.066423 0.253955,-0.1476072 z M 1.8870079,4.534624 C 2.0692536,4.446675 2.2299365,4.3747162 2.2440812,4.3747162 c 0.014145,0 -0.1233926,0.071959 -0.3056383,0.1599078 -0.1822457,0.087949 -0.3429287,0.1599078 -0.3570733,0.1599078 -0.014145,0 0.1233926,-0.071959 0.3056383,-0.1599078 z M 8.6764284,1.016652 V 0.62675668 l 0.1285876,0.0577791 c 0.1222507,0.0549317 0.1285875,0.0712985 0.1285875,0.33211622 0,0.2608177 -0.00634,0.2771845 -0.1285875,0.3321162 L 8.6764284,1.4065473 Z M 4.6467524,1.3283802 C 4.527214,1.2652027 4.5233447,0.79542954 4.6416972,0.71461087 c 0.044038,-0.030072 0.1019023,-0.0546763 0.1285875,-0.0546763 0.02817,0 0.048518,0.14960208 0.048518,0.35671743 0,0.1961946 -0.019558,0.3567174 -0.043463,0.3567174 -0.023905,0 -0.081769,-0.020245 -0.1285873,-0.044989 z"
       id="path872"
       inkscape:connector-curvature="0" />
    <path
       style="fill:#4e3709;stroke-width:0.03557194"
       d="m 7.6477284,13.316552 c 0,-0.0072 0.068709,-0.0781 0.1526873,-0.157674 0.1413445,-0.133924 0.1728695,-0.147827 0.4243388,-0.18714 0.1494084,-0.02336 0.3377639,-0.05847 0.4185683,-0.07802 0.1278386,-0.03094 0.1064941,-0.01016 -0.1643744,0.160036 -0.2335036,0.146714 -0.3636599,0.205612 -0.5208612,0.235696 -0.2164483,0.04142 -0.3103588,0.04963 -0.3103588,0.02711 z M 5.0557085,13.075694 c -0.1585872,-0.09903 -0.2883404,-0.187358 -0.2883404,-0.196282 0,-0.05077 0.2777188,0.05681 0.3942056,0.152711 0.07544,0.06211 0.1707155,0.137831 0.2117224,0.168275 0.041007,0.03044 0.051202,0.05535 0.022655,0.05535 -0.028547,0 -0.1816559,-0.08103 -0.3402431,-0.180056 z M 3.9058318,12.484673 c -0.040159,-0.04227 -0.064294,-0.18004 -0.064294,-0.367007 0,-0.268705 0.00805,-0.295477 0.078711,-0.261681 0.064387,0.0308 0.076087,0.09759 0.064294,0.367007 -0.012543,0.286537 -0.022777,0.32056 -0.078711,0.261681 z M 9.5026603,12.2348 c 0,-0.243116 0.01811,-0.331268 0.075516,-0.367569 0.067647,-0.04278 0.075517,-0.01442 0.075517,0.272061 0,0.243117 -0.018111,0.331268 -0.075517,0.36757 -0.067646,0.04278 -0.075516,0.01442 -0.075516,-0.272062 z M 4.199742,11.832924 c 0.033886,-0.0316 0.075717,-0.05071 0.092958,-0.04247 0.017241,0.0082 -0.010484,0.0341 -0.061611,0.05746 -0.088867,0.0406 -0.090247,0.03994 -0.031347,-0.01499 z m 2.4450038,-0.111679 c 0.084868,-0.03454 0.1774507,-0.06285 0.20574,-0.06291 0.058705,-1.23e-4 -0.1034343,0.06339 -0.257175,0.100726 -0.056579,0.01374 -0.033433,-0.0033 0.051435,-0.03782 z m 1.5173326,-0.332554 c 0,-0.01208 0.037992,-0.02894 0.084428,-0.03746 0.070593,-0.01296 0.073775,-0.0094 0.01942,0.02197 -0.074073,0.04269 -0.1038473,0.04713 -0.1038473,0.0155 z M 3.9058318,10.963616 c -0.035874,-0.04764 -0.064294,-0.198487 -0.064294,-0.341264 0,-0.236851 0.00586,-0.251887 0.078801,-0.20208 0.062168,0.04245 0.075739,0.114482 0.064294,0.341264 -0.013294,0.263427 -0.019881,0.280318 -0.078801,0.20208 z m 5.5951924,-0.28014 c -0.00113,-0.137254 0.021601,-0.212951 0.073881,-0.246012 0.068444,-0.04328 0.07567,-0.02919 0.077153,0.150504 0.00113,0.137254 -0.021601,0.212952 -0.073881,0.246012 -0.068444,0.04328 -0.07567,0.02919 -0.077153,-0.150504 z M 4.1501481,10.432637 c 0,-0.01353 0.034719,-0.03838 0.077153,-0.05523 0.043038,-0.01708 0.077152,-0.01975 0.077152,-0.006 0,0.01353 -0.034719,0.03838 -0.077152,0.05523 -0.043038,0.01708 -0.077153,0.01975 -0.077153,0.006 z m 2.3754181,-0.0937 c 0.083323,-0.04585 0.4020721,-0.146532 0.4020721,-0.126999 0,0.0052 -0.1099423,0.04667 -0.2443163,0.09208 -0.1343739,0.04541 -0.205364,0.06112 -0.1577558,0.03492 z M 8.1620784,9.9620929 c 0,-0.013531 0.023146,-0.031443 0.051435,-0.039805 0.028289,-0.00836 0.051435,-0.00413 0.051435,0.0094 0,0.013531 -0.023146,0.031443 -0.051435,0.039805 -0.028289,0.00836 -0.051435,0.00413 -0.051435,-0.0094 z M 3.9029913,9.5286682 c -0.044014,-0.064516 -0.061728,-0.1958354 -0.051435,-0.3813187 0.013558,-0.2443268 0.024672,-0.2754023 0.08149,-0.2278406 0.046572,0.038986 0.061597,0.1503734 0.051435,0.3813187 -0.013508,0.3069698 -0.018322,0.3204314 -0.08149,0.2278406 z M 9.5010242,9.2057144 C 9.499764,9.0135473 9.5170338,8.94956 9.576541,8.9259387 c 0.067652,-0.026855 0.077152,-0.00206 0.077152,0.201396 0,0.1659231 -0.021513,0.2456258 -0.075517,0.2797757 -0.068028,0.043019 -0.075679,0.023047 -0.077153,-0.201396 z M 4.1517839,8.9351012 c 8.996e-4,-0.011805 0.035618,-0.042953 0.077153,-0.069217 0.060454,-0.038229 0.075517,-0.040057 0.075517,-0.00916 0,0.021225 -0.034719,0.052373 -0.077152,0.069217 -0.042434,0.016844 -0.076416,0.020967 -0.075517,0.00916 z M 6.5413002,8.8298006 c 0.097485,-0.053392 0.2834681,-0.1138558 0.2834681,-0.092156 0,0.00564 -0.086797,0.041282 -0.1928813,0.079214 -0.1579692,0.056485 -0.1743657,0.058827 -0.090587,0.012942 z M 8.1620784,8.4614195 c 0,-0.013531 0.023146,-0.031443 0.051435,-0.039805 0.028289,-0.00836 0.051435,-0.00413 0.051435,0.0094 0,0.013531 -0.023146,0.031443 -0.051435,0.039805 -0.028289,0.00836 -0.051435,0.00413 -0.051435,-0.0094 z M 3.9058318,8.0181735 C 3.8672304,7.9679656 3.841538,7.8124275 3.841538,7.6289473 3.841538,7.354837 3.849638,7.327219 3.920116,7.36093 3.984714,7.391827 3.996153,7.4610761 3.98441,7.7501559 3.971652,8.0642048 3.963252,8.0928581 3.9058318,8.0181735 Z M 9.5010242,7.705041 c -0.00126,-0.1921671 0.01601,-0.2561543 0.075517,-0.2797757 0.067652,-0.026855 0.077152,-0.00206 0.077152,0.201396 0,0.1659231 -0.021513,0.2456258 -0.075517,0.2797758 -0.068028,0.043019 -0.075679,0.023047 -0.077152,-0.2013961 z M 9.6859536,7.3565249 c -0.015731,-0.012174 0.042114,-0.054273 0.1285458,-0.093553 l 0.1571478,-0.071418 -0.071303,0.084427 C 9.8275248,7.3622026 9.7371581,7.3961523 9.6859536,7.3565249 Z M 3.9958431,7.3297642 c 0,-0.013531 0.023146,-0.031443 0.051435,-0.039805 0.028289,-0.00836 0.051435,-0.00413 0.051435,0.0094 0,0.013531 -0.023146,0.031443 -0.051435,0.039805 -0.028289,0.00836 -0.051435,0.00413 -0.051435,-0.0094 z m 2.8803602,-0.041992 c 0,-0.018423 0.1264432,-0.069837 0.2700338,-0.1098001 0.149896,-0.041718 0.1011562,-0.00862 -0.090011,0.061116 -0.099012,0.036121 -0.1800225,0.058029 -0.1800228,0.048684 z M 8.4192534,6.9421105 c 0,-0.072022 0.033618,-0.087623 0.3293625,-0.1528453 0.03938,-0.00868 -0.1551958,0.1293327 -0.2879485,0.204249 -0.022778,0.012854 -0.041414,-0.010278 -0.041414,-0.051404 z M 3.9058318,6.5308977 c -0.049569,-0.088653 -0.063822,-0.7079035 -0.062234,-2.7039113 0.00182,-2.2875296 0.010828,-2.5811975 0.077384,-2.5225581 0.065048,0.057311 0.073539,0.4262082 0.062234,2.7039113 -0.010739,2.1636339 -0.024643,2.6168848 -0.077384,2.5225581 z M 9.5010242,3.8918546 c 0.00141,-2.1862971 0.011915,-2.537286 0.077153,-2.5785399 0.066556,-0.042087 0.075517,0.2545941 0.075517,2.5001602 0,2.2348003 -0.00948,2.5516779 -0.077152,2.5785399 -0.068497,0.02719 -0.076969,-0.2533036 -0.075518,-2.5001602 z m 2.2872218,1.9835349 c 0.167965,-0.081184 0.316963,-0.1476072 0.331107,-0.1476072 0.01414,0 -0.111707,0.066423 -0.279672,0.1476072 -0.167964,0.081184 -0.316962,0.1476073 -0.331107,0.1476073 -0.01414,0 0.111708,-0.066423 0.279672,-0.1476073 z M 11.299614,5.6170769 c 0.153658,-0.074419 0.290951,-0.1353066 0.305096,-0.1353066 0.01414,0 -0.100003,0.060888 -0.253661,0.1353066 -0.153658,0.074419 -0.290952,0.1353066 -0.305096,0.1353066 -0.01415,0 0.100003,-0.060888 0.253661,-0.1353066 z M 1.8355729,4.534624 C 1.989231,4.460205 2.1265242,4.3993174 2.1406689,4.3993174 c 0.014145,0 -0.1000029,0.060888 -0.253661,0.1353066 -0.1536582,0.074419 -0.2909514,0.1353066 -0.305096,0.1353066 -0.014145,0 0.1000028,-0.060888 0.253661,-0.1353066 z M 4.4670142,1.1877028 c -0.081557,-0.085614 -0.071975,-0.28072932 0.017461,-0.35555983 0.067555,-0.0565227 0.073655,-0.0420797 0.07533,0.17835873 0.001,0.1319239 -0.00604,0.2398617 -0.015639,0.2398617 -0.0096,0 -0.044322,-0.028197 -0.077152,-0.062661 z M 8.9368753,1.016652 c 0,-0.22159193 0.0075,-0.24127178 0.075516,-0.19825791 0.04729,0.0299043 0.075517,0.10401032 0.075517,0.19825791 0,0.094248 -0.028227,0.1683536 -0.075517,0.1982579 -0.06802,0.043014 -0.075516,0.023334 -0.075516,-0.1982579 z"
       id="path870"
       inkscape:connector-curvature="0" />
    <path
       style="fill:#2d2109;stroke-width:0.03557194"
       d="m 8.3390498,13.145045 c 0.08319,-0.05412 0.2087011,-0.135167 0.278914,-0.180099 0.070213,-0.04493 0.233606,-0.116427 0.3630962,-0.158877 l 0.235436,-0.07718 -0.3390668,0.194374 c -0.1864868,0.106906 -0.4179443,0.222683 -0.51435,0.257282 l -0.1752833,0.06291 z m -3.29234,9.89e-4 C 4.9616145,13.114181 4.7427524,13.001293 4.5603496,12.895171 4.2891644,12.737397 4.261397,12.713859 4.408027,12.76605 c 0.098625,0.0351 0.205268,0.06832 0.2369839,0.0738 0.06481,0.01121 0.599771,0.34336 0.5733646,0.35599 -0.00932,0.0045 -0.08657,-0.01796 -0.1716657,-0.04981 z m 4.6113866,-1.04654 c -0.00155,-0.169133 0.019609,-0.324121 0.047032,-0.344417 0.063577,-0.04705 0.063577,0.531964 0,0.602729 -0.027945,0.03111 -0.045245,-0.06391 -0.047032,-0.258312 z m -5.8808521,0.199885 c -0.059762,-0.128627 -0.043865,-0.619935 0.017676,-0.546296 0.027353,0.03273 0.043245,0.187718 0.035316,0.344417 -0.010005,0.197736 -0.026219,0.259504 -0.052992,0.201879 z m 4.471e-4,-1.626755 c -0.020971,-0.07442 -0.036863,-0.196194 -0.035316,-0.270613 0.00235,-0.113091 0.011029,-0.125471 0.052852,-0.0754 0.027521,0.03295 0.043413,0.154724 0.035316,0.270613 -0.01456,0.208391 -0.015142,0.20922 -0.052852,0.0754 z m 5.880405,-0.110705 c -0.00155,-0.108246 0.019609,-0.213416 0.047032,-0.233712 0.063813,-0.04723 0.063813,0.310291 0,0.381319 -0.029769,0.03313 -0.045128,-0.01507 -0.047032,-0.147607 z M 3.7776914,9.2457543 c -0.020971,-0.074419 -0.036863,-0.2128004 -0.035316,-0.307515 0.00223,-0.1367428 0.013085,-0.159915 0.052687,-0.1125158 0.027431,0.032831 0.043323,0.1712128 0.035316,0.307515 -0.01339,0.2279444 -0.017616,0.2369694 -0.052687,0.1125158 z m 5.880405,-0.1476072 c -0.00155,-0.1285413 0.019609,-0.2503172 0.047032,-0.2706132 0.063709,-0.047152 0.063709,0.3842105 0,0.4551222 -0.028972,0.032247 -0.045179,-0.031335 -0.047032,-0.184509 z M 3.7776914,7.745081 C 3.7195986,7.5389305 3.7300421,7.2311107 3.793366,7.283076 3.82214,7.306689 3.838501,7.4480583 3.830378,7.6028917 3.817626,7.8459771 3.811092,7.8636091 3.7776914,7.745081 Z m 5.880405,-0.1599079 c -0.00193,-0.1514932 0.012917,-0.2097579 0.047032,-0.184509 0.060888,0.045064 0.060888,0.2889458 0,0.3567175 -0.029208,0.032511 -0.045164,-0.025911 -0.047032,-0.1722085 z M 9.6555298,7.2038545 C 9.9506983,6.9204883 10.511783,6.5269074 10.812879,6.3920148 c 0.17937,-0.080359 0.171806,-0.07133 -0.113358,0.1353066 -0.168055,0.121776 -0.396677,0.3210457 -0.508049,0.4428217 -0.111373,0.1217759 -0.2202136,0.2251239 -0.2418693,0.2296623 -0.021656,0.00454 -0.023946,0.021144 -0.00509,0.036902 0.018857,0.015758 0.014581,0.020078 -0.0095,0.0096 -0.024082,-0.010477 -0.1573587,0.033805 -0.2961694,0.098405 L 9.3864568,7.4621671 9.6555282,7.2038545 Z M 3.7772443,6.2099443 c -0.057857,-0.2915194 -0.042225,-5.0824277 0.016355,-5.0124851 0.029476,0.035194 0.043289,1.0647674 0.035316,2.6323288 -0.0072,1.4159901 -0.030454,2.4870605 -0.051671,2.3801563 z M 9.6624359,3.7965879 c 8.312e-4,-1.3936581 0.020043,-2.5616002 0.042693,-2.5954269 0.022649,-0.033827 0.041861,1.084298 0.042693,2.4847215 8.333e-4,1.4004235 -0.01838,2.5683656 -0.042693,2.5954269 -0.025016,0.027845 -0.043548,-1.050707 -0.042693,-2.4847215 z m 1.0713931,2.044912 c 0,-0.00511 0.0405,-0.024482 0.09001,-0.043052 0.08158,-0.030601 0.0834,-0.029731 0.01942,0.00929 -0.06719,0.040979 -0.109431,0.054011 -0.109431,0.033764 z M 1.7327029,4.5592252 c 0.1536581,-0.074419 0.2909513,-0.1353066 0.305096,-0.1353066 0.014145,0 -0.1000029,0.060888 -0.253661,0.1353066 -0.1536582,0.074419 -0.2909514,0.1353066 -0.305096,0.1353066 -0.014145,0 0.1000028,-0.060888 0.253661,-0.1353066 z M 9.0998414,1.0289526 c 0,-0.0473573 0.010585,-0.0667308 0.023523,-0.0430521 0.012937,0.0236786 0.012937,0.0624255 0,0.0861042 -0.012937,0.023679 -0.023523,0.00431 -0.023523,-0.043052 z"
       id="path868"
       inkscape:connector-curvature="0" />
  </g>
</svg>
